<svg xmlns="http://www.w3.org/2000/svg" xmlns:xlink="http://www.w3.org/1999/xlink" x="0px" y="0px" viewBox="0 0 500 500" style="enable-background:new 0 0 500 500;" xml:space="preserve"><g>	<path d="M4.167,0H0v4.167C2.301,4.167,4.167,2.301,4.167,0z"></path>	<path d="M41.667,4.167c2.301,0,4.167-1.865,4.167-4.167H37.5C37.5,2.301,39.365,4.167,41.667,4.167z"></path>	<path d="M83.333,4.167C85.635,4.167,87.5,2.301,87.5,0h-8.333C79.167,2.301,81.032,4.167,83.333,4.167z"></path>	<path d="M125,4.167c2.301,0,4.167-1.865,4.167-4.167h-8.333C120.833,2.301,122.699,4.167,125,4.167z"></path>	<path d="M166.667,4.167c2.301,0,4.167-1.865,4.167-4.167H162.5C162.5,2.301,164.365,4.167,166.667,4.167z"></path>	<path d="M208.333,4.167c2.301,0,4.167-1.865,4.167-4.167h-8.333C204.167,2.301,206.032,4.167,208.333,4.167z"></path>	<path d="M250,4.167c2.301,0,4.167-1.865,4.167-4.167h-8.333C245.833,2.301,247.699,4.167,250,4.167z"></path>	<path d="M291.667,4.167c2.301,0,4.167-1.865,4.167-4.167H287.5C287.5,2.301,289.365,4.167,291.667,4.167z"></path>	<path d="M333.333,4.167c2.301,0,4.167-1.865,4.167-4.167h-8.333C329.167,2.301,331.032,4.167,333.333,4.167z"></path>	<path d="M375,4.167c2.301,0,4.167-1.865,4.167-4.167h-8.333C370.833,2.301,372.699,4.167,375,4.167z"></path>	<path d="M416.667,4.167c2.301,0,4.167-1.865,4.167-4.167H412.5C412.5,2.301,414.365,4.167,416.667,4.167z"></path>	<path d="M458.333,4.167c2.301,0,4.167-1.865,4.167-4.167h-8.333C454.167,2.301,456.032,4.167,458.333,4.167z"></path>	<path d="M500,4.167V0h-4.167C495.833,2.301,497.699,4.167,500,4.167z"></path>	<path d="M4.167,41.667C4.167,39.365,2.301,37.5,0,37.5v8.333C2.301,45.833,4.167,43.968,4.167,41.667z"></path>	<circle cx="41.667" cy="41.667" r="4.167"></circle>	<circle cx="83.333" cy="41.667" r="4.167"></circle>	<circle cx="125" cy="41.667" r="4.167"></circle>	<circle cx="166.667" cy="41.667" r="4.167"></circle>	<circle cx="208.333" cy="41.667" r="4.167"></circle>	<circle cx="250" cy="41.667" r="4.167"></circle>	<circle cx="291.667" cy="41.667" r="4.167"></circle>	<circle cx="333.333" cy="41.667" r="4.167"></circle>	<circle cx="375" cy="41.667" r="4.167"></circle>	<circle cx="416.667" cy="41.667" r="4.167"></circle>	<circle cx="458.333" cy="41.667" r="4.167"></circle>	<path d="M495.833,41.667c0,2.301,1.865,4.167,4.167,4.167V37.5C497.699,37.5,495.833,39.365,495.833,41.667z"></path>	<path d="M4.167,83.333c0-2.301-1.865-4.167-4.167-4.167V87.5C2.301,87.5,4.167,85.635,4.167,83.333z"></path>	<circle cx="41.667" cy="83.333" r="4.167"></circle>	<circle cx="83.333" cy="83.333" r="4.167"></circle>	<circle cx="125" cy="83.333" r="4.167"></circle>	<circle cx="166.667" cy="83.333" r="4.167"></circle>	<circle cx="208.333" cy="83.333" r="4.167"></circle>	<circle cx="250" cy="83.333" r="4.167"></circle>	<circle cx="291.667" cy="83.333" r="4.167"></circle>	<circle cx="333.333" cy="83.333" r="4.167"></circle>	<circle cx="375" cy="83.333" r="4.167"></circle>	<circle cx="416.667" cy="83.333" r="4.167"></circle>	<circle cx="458.333" cy="83.333" r="4.167"></circle>	<path d="M495.833,83.333c0,2.301,1.865,4.167,4.167,4.167v-8.333C497.699,79.167,495.833,81.032,495.833,83.333z"></path>	<path d="M4.167,125c0-2.301-1.865-4.167-4.167-4.167v8.333C2.301,129.167,4.167,127.301,4.167,125z"></path>	<circle cx="41.667" cy="125" r="4.167"></circle>	<circle cx="83.333" cy="125" r="4.167"></circle>	<circle cx="125" cy="125" r="4.167"></circle>	<circle cx="166.667" cy="125" r="4.167"></circle>	<circle cx="208.333" cy="125" r="4.167"></circle>	<circle cx="250" cy="125" r="4.167"></circle>	<circle cx="291.667" cy="125" r="4.167"></circle>	<circle cx="333.333" cy="125" r="4.167"></circle>	<circle cx="375" cy="125" r="4.167"></circle>	<circle cx="416.667" cy="125" r="4.167"></circle>	<circle cx="458.333" cy="125" r="4.167"></circle>	<path d="M495.833,125c0,2.301,1.865,4.167,4.167,4.167v-8.333C497.699,120.833,495.833,122.699,495.833,125z"></path>	<path d="M4.167,166.667c0-2.301-1.865-4.167-4.167-4.167v8.333C2.301,170.833,4.167,168.968,4.167,166.667z"></path>	<circle cx="41.667" cy="166.667" r="4.167"></circle>	<circle cx="83.333" cy="166.667" r="4.167"></circle>	<circle cx="125" cy="166.667" r="4.167"></circle>	<circle cx="166.667" cy="166.667" r="4.167"></circle>	<circle cx="208.333" cy="166.667" r="4.167"></circle>	<circle cx="250" cy="166.667" r="4.167"></circle>	<circle cx="291.667" cy="166.667" r="4.167"></circle>	<circle cx="333.333" cy="166.667" r="4.167"></circle>	<circle cx="375" cy="166.667" r="4.167"></circle>	<circle cx="416.667" cy="166.667" r="4.167"></circle>	<circle cx="458.333" cy="166.667" r="4.167"></circle>	<path d="M495.833,166.667c0,2.301,1.865,4.167,4.167,4.167V162.5C497.699,162.5,495.833,164.365,495.833,166.667z"></path>	<path d="M4.167,208.333c0-2.301-1.865-4.167-4.167-4.167v8.333C2.301,212.5,4.167,210.635,4.167,208.333z"></path>	<circle cx="41.667" cy="208.333" r="4.167"></circle>	<circle cx="83.333" cy="208.333" r="4.167"></circle>	<circle cx="125" cy="208.333" r="4.167"></circle>	<circle cx="166.667" cy="208.333" r="4.167"></circle>	<circle cx="208.333" cy="208.333" r="4.167"></circle>	<circle cx="250" cy="208.333" r="4.167"></circle>	<circle cx="291.667" cy="208.333" r="4.167"></circle>	<circle cx="333.333" cy="208.333" r="4.167"></circle>	<circle cx="375" cy="208.333" r="4.167"></circle>	<circle cx="416.667" cy="208.333" r="4.167"></circle>	<circle cx="458.333" cy="208.333" r="4.167"></circle>	<path d="M495.833,208.333c0,2.301,1.865,4.167,4.167,4.167v-8.333C497.699,204.167,495.833,206.032,495.833,208.333z"></path>	<path d="M4.167,250c0-2.301-1.865-4.167-4.167-4.167v8.333C2.301,254.167,4.167,252.301,4.167,250z"></path>	<circle cx="41.667" cy="250" r="4.167"></circle>	<circle cx="83.333" cy="250" r="4.167"></circle>	<circle cx="125" cy="250" r="4.167"></circle>	<circle cx="166.667" cy="250" r="4.167"></circle>	<circle cx="208.333" cy="250" r="4.167"></circle>	<circle cx="250" cy="250" r="4.167"></circle>	<circle cx="291.667" cy="250" r="4.167"></circle>	<circle cx="333.333" cy="250" r="4.167"></circle>	<circle cx="375" cy="250" r="4.167"></circle>	<circle cx="416.667" cy="250" r="4.167"></circle>	<circle cx="458.333" cy="250" r="4.167"></circle>	<path d="M495.833,250c0,2.301,1.865,4.167,4.167,4.167v-8.333C497.699,245.833,495.833,247.699,495.833,250z"></path>	<path d="M4.167,291.667c0-2.301-1.865-4.167-4.167-4.167v8.333C2.301,295.833,4.167,293.968,4.167,291.667z"></path>	<circle cx="41.667" cy="291.667" r="4.167"></circle>	<circle cx="83.333" cy="291.667" r="4.167"></circle>	<circle cx="125" cy="291.667" r="4.167"></circle>	<circle cx="166.667" cy="291.667" r="4.167"></circle>	<circle cx="208.333" cy="291.667" r="4.167"></circle>	<circle cx="250" cy="291.667" r="4.167"></circle>	<circle cx="291.667" cy="291.667" r="4.167"></circle>	<circle cx="333.333" cy="291.667" r="4.167"></circle>	<circle cx="375" cy="291.667" r="4.167"></circle>	<circle cx="416.667" cy="291.667" r="4.167"></circle>	<circle cx="458.333" cy="291.667" r="4.167"></circle>	<path d="M495.833,291.667c0,2.301,1.865,4.167,4.167,4.167V287.5C497.699,287.5,495.833,289.365,495.833,291.667z"></path>	<path d="M4.167,333.333c0-2.301-1.865-4.167-4.167-4.167v8.333C2.301,337.5,4.167,335.635,4.167,333.333z"></path>	<circle cx="41.667" cy="333.333" r="4.167"></circle>	<circle cx="83.333" cy="333.333" r="4.167"></circle>	<circle cx="125" cy="333.333" r="4.167"></circle>	<circle cx="166.667" cy="333.333" r="4.167"></circle>	<circle cx="208.333" cy="333.333" r="4.167"></circle>	<circle cx="250" cy="333.333" r="4.167"></circle>	<circle cx="291.667" cy="333.333" r="4.167"></circle>	<circle cx="333.333" cy="333.333" r="4.167"></circle>	<circle cx="375" cy="333.333" r="4.167"></circle>	<circle cx="416.667" cy="333.333" r="4.167"></circle>	<circle cx="458.333" cy="333.333" r="4.167"></circle>	<path d="M495.833,333.333c0,2.301,1.865,4.167,4.167,4.167v-8.333C497.699,329.167,495.833,331.032,495.833,333.333z"></path>	<path d="M4.167,375c0-2.301-1.865-4.167-4.167-4.167v8.333C2.301,379.167,4.167,377.301,4.167,375z"></path>	<circle cx="41.667" cy="375" r="4.167"></circle>	<circle cx="83.333" cy="375" r="4.167"></circle>	<circle cx="125" cy="375" r="4.167"></circle>	<circle cx="166.667" cy="375" r="4.167"></circle>	<circle cx="208.333" cy="375" r="4.167"></circle>	<circle cx="250" cy="375" r="4.167"></circle>	<circle cx="291.667" cy="375" r="4.167"></circle>	<circle cx="333.333" cy="375" r="4.167"></circle>	<circle cx="375" cy="375" r="4.167"></circle>	<circle cx="416.667" cy="375" r="4.167"></circle>	<circle cx="458.333" cy="375" r="4.167"></circle>	<path d="M495.833,375c0,2.301,1.865,4.167,4.167,4.167v-8.333C497.699,370.833,495.833,372.699,495.833,375z"></path>	<path d="M4.167,416.667c0-2.301-1.865-4.167-4.167-4.167v8.333C2.301,420.833,4.167,418.968,4.167,416.667z"></path>	<circle cx="41.667" cy="416.667" r="4.167"></circle>	<circle cx="83.333" cy="416.667" r="4.167"></circle>	<circle cx="125" cy="416.667" r="4.167"></circle>	<circle cx="166.667" cy="416.667" r="4.167"></circle>	<circle cx="208.333" cy="416.667" r="4.167"></circle>	<circle cx="250" cy="416.667" r="4.167"></circle>	<circle cx="291.667" cy="416.667" r="4.167"></circle>	<circle cx="333.333" cy="416.667" r="4.167"></circle>	<circle cx="375" cy="416.667" r="4.167"></circle>	<circle cx="416.667" cy="416.667" r="4.167"></circle>	<circle cx="458.333" cy="416.667" r="4.167"></circle>	<path d="M495.833,416.667c0,2.301,1.865,4.167,4.167,4.167V412.5C497.699,412.5,495.833,414.365,495.833,416.667z"></path>	<path d="M4.167,458.333c0-2.301-1.865-4.167-4.167-4.167v8.333C2.301,462.5,4.167,460.635,4.167,458.333z"></path>	<circle cx="41.667" cy="458.333" r="4.167"></circle>	<circle cx="83.333" cy="458.333" r="4.167"></circle>	<circle cx="125" cy="458.333" r="4.167"></circle>	<circle cx="166.667" cy="458.333" r="4.167"></circle>	<circle cx="208.333" cy="458.333" r="4.167"></circle>	<circle cx="250" cy="458.333" r="4.167"></circle>	<circle cx="291.667" cy="458.333" r="4.167"></circle>	<circle cx="333.333" cy="458.333" r="4.167"></circle>	<circle cx="375" cy="458.333" r="4.167"></circle>	<circle cx="416.667" cy="458.333" r="4.167"></circle>	<circle cx="458.333" cy="458.333" r="4.167"></circle>	<path d="M495.833,458.333c0,2.301,1.865,4.167,4.167,4.167v-8.333C497.699,454.167,495.833,456.032,495.833,458.333z"></path>	<path d="M0,495.833V500h4.167C4.167,497.699,2.301,495.833,0,495.833z"></path>	<path d="M41.667,495.833c-2.301,0-4.167,1.865-4.167,4.167h8.333C45.833,497.699,43.968,495.833,41.667,495.833z"></path>	<path d="M83.333,495.833c-2.301,0-4.167,1.865-4.167,4.167H87.5C87.5,497.699,85.635,495.833,83.333,495.833z"></path>	<path d="M125,495.833c-2.301,0-4.167,1.865-4.167,4.167h8.333C129.167,497.699,127.301,495.833,125,495.833z"></path>	<path d="M166.667,495.833c-2.301,0-4.167,1.865-4.167,4.167h8.333C170.833,497.699,168.968,495.833,166.667,495.833z"></path>	<path d="M208.333,495.833c-2.301,0-4.167,1.865-4.167,4.167h8.333C212.5,497.699,210.635,495.833,208.333,495.833z"></path>	<path d="M250,495.833c-2.301,0-4.167,1.865-4.167,4.167h8.333C254.167,497.699,252.301,495.833,250,495.833z"></path>	<path d="M291.667,495.833c-2.301,0-4.167,1.865-4.167,4.167h8.333C295.833,497.699,293.968,495.833,291.667,495.833z"></path>	<path d="M333.333,495.833c-2.301,0-4.167,1.865-4.167,4.167h8.333C337.5,497.699,335.635,495.833,333.333,495.833z"></path>	<path d="M375,495.833c-2.301,0-4.167,1.865-4.167,4.167h8.333C379.167,497.699,377.301,495.833,375,495.833z"></path>	<path d="M416.667,495.833c-2.301,0-4.167,1.865-4.167,4.167h8.333C420.833,497.699,418.968,495.833,416.667,495.833z"></path>	<path d="M458.333,495.833c-2.301,0-4.167,1.865-4.167,4.167h8.333C462.5,497.699,460.635,495.833,458.333,495.833z"></path>	<path d="M500,495.833c-2.301,0-4.167,1.865-4.167,4.167H500V495.833z"></path></g></svg>