<svg xmlns="http://www.w3.org/2000/svg" xmlns:xlink="http://www.w3.org/1999/xlink" x="0px" y="0px" viewBox="0 0 100 100" style="enable-background:new 0 0 100 100;" xml:space="preserve"><g>	<path d="M49.953,59.9c7.876,0,15.43-3.129,21-8.699c5.569-5.569,8.698-13.123,8.698-20.999c0-7.877-3.129-15.431-8.698-21  c-5.57-5.569-13.124-8.698-21-8.698s-15.43,3.129-21,8.698c-5.569,5.569-8.698,13.123-8.698,21c0,7.876,3.129,15.43,8.698,20.999  C34.523,56.771,42.077,59.9,49.953,59.9z M49.953,10.401c5.251,0,10.287,2.087,14,5.8c3.713,3.712,5.799,8.749,5.799,14  s-2.086,10.287-5.799,14s-8.749,5.799-14,5.799s-10.287-2.086-14-5.799s-5.799-8.749-5.799-14s2.086-10.288,5.799-14  C39.666,12.488,44.702,10.401,49.953,10.401z"></path>	<path d="M98.461,91.577l-3.96-5.494c-3.824-5.07-8.775-9.181-14.463-12.008c-5.687-2.826-11.953-4.291-18.304-4.277H37.43  c-7.577-0.031-15.013,2.063-21.459,6.044C9.522,79.823,4.319,85.532,0.952,92.32c-0.723,1.574-0.571,3.411,0.402,4.845  c0.972,1.433,2.623,2.254,4.353,2.164c1.73-0.09,3.286-1.078,4.105-2.604c2.553-5.135,6.494-9.452,11.376-12.462  c4.882-3.01,10.51-4.591,16.244-4.565h24.304c9.727-0.004,18.891,4.56,24.747,12.325l4.108,5.494  c1.061,1.414,2.796,2.156,4.552,1.944c1.756-0.211,3.266-1.343,3.96-2.97c0.694-1.626,0.469-3.499-0.592-4.914L98.461,91.577z"></path></g></svg>