<svg xmlns="http://www.w3.org/2000/svg" xmlns:xlink="http://www.w3.org/1999/xlink" id="Layer_1" x="0px" y="0px" viewBox="0 0 200 89.1" style="enable-background:new 0 0 200 89.1;" xml:space="preserve"><style type="text/css">	.st0{display:none;}	.st1{display:inline;fill-rule:evenodd;clip-rule:evenodd;}	.st2{display:inline;}	.st3{fill-rule:evenodd;clip-rule:evenodd;}</style><g class="st0">	<path class="st1" d="M79.3,32.9c-0.5,0.4-1,1-1.4,1.5c-1.7,2.4-2.2,5.6-2.2,8.5c0,2.6,0.4,5.2,1.3,7.6c0.8,2,1.9,3.9,3.6,5.3  c1,0.8,2.1,1.4,3.3,1.7l0.1,0l0,0.2l-0.1,0c-2.2-0.1-4.3-0.6-6.1-1.8c-2-1.2-3.5-2.8-4.6-4.9c-1.1-2.1-1.6-4.4-1.6-6.7  c0-2.6,0.6-5.1,2.1-7.3c1.4-2,3.3-3.5,5.5-4.6c0,0,0,0,0.1,0l0.1,0L79.3,32.9L79.3,32.9L79.3,32.9z M90.6,56.4  c1.5-1.1,2.5-2.6,3.1-4.3c0.8-2.1,1.1-4.4,1.1-6.6c0-2.5-0.3-4.9-1.2-7.2c-0.8-2-1.9-3.8-3.6-5.1c-1.1-0.9-2.4-1.5-3.8-1.7l-0.1,0  l0-0.2l0.1,0c2.4,0,4.7,0.6,6.8,1.8c1.9,1.2,3.5,2.8,4.5,4.8c1.1,2,1.6,4.1,1.6,6.4c0,2.5-0.6,4.8-2,6.9c-1.3,2.1-3.1,3.8-5.3,5  c-0.3,0.2-0.7,0.4-1,0.5l-0.1,0L90.6,56.4L90.6,56.4L90.6,56.4z"></path>	<path class="st1" d="M108.2,53.1c0.1,1.2,0.3,2.4,1,3.3c0.2,0.3,0.4,0.5,0.7,0.7l0.3,0.2h-4.4l0.3-0.2c0.3-0.2,0.5-0.4,0.7-0.7  c0.8-1,1.1-2.1,1.2-3.4l0-0.1l0.2,0L108.2,53.1L108.2,53.1z M130.5,32c-0.3,0.2-0.5,0.5-0.7,0.7c-0.7,0.9-1,2-1,3.1l0,0.1l-0.2,0  l0-0.1c-0.1-1.1-0.4-2.2-1-3.1c-0.2-0.3-0.4-0.5-0.6-0.7l-0.3-0.2l4.2,0L130.5,32L130.5,32z M128.8,52.1v5.7L108,34.2l-0.2-0.2  c-0.7-0.7-1.4-1.5-2.2-2l-0.4-0.2l0.4,0c0.2,0,0.4,0,0.7,0l3.3,0c0.5,0,1,0,1.5,0c0,0,0.1,0,0.1,0l0,0l0,0c0.2,0.2,0.3,0.4,0.5,0.6  c0.3,0.5,0.7,0.9,1,1.4L128.8,52.1L128.8,52.1z"></path>	<path class="st1" d="M37.3,53.6c0.1,1,0.4,2,1,2.9c0.2,0.3,0.4,0.5,0.7,0.7l0.3,0.2l-4.3,0l0.3-0.2c0.3-0.2,0.5-0.4,0.7-0.7  c0.6-0.8,1-1.8,1.1-2.8l0-0.1l0.2,0L37.3,53.6L37.3,53.6z M63.4,32c-0.2,0.2-0.3,0.4-0.4,0.7c-0.2,0.6-0.2,1.4-0.2,2.1v19.8  c0,0.7,0,1.5,0.2,2.1c0.1,0.2,0.2,0.4,0.3,0.6l0.2,0.2h-5.3l0.2-0.2c0.1-0.2,0.3-0.4,0.3-0.6C59,56,59,55.1,59,54.5V34.6  c0-0.7,0-1.5-0.3-2.1c-0.1-0.2-0.2-0.4-0.3-0.6l-0.2-0.2l5.4,0L63.4,32L63.4,32z M37.4,34.4c-0.5-0.9-1.1-1.8-1.9-2.4l-0.3-0.2  c2.2-0.5,4.4-1.3,6.2,1.9l10,18.7l-2,4.8L37.5,34.7L37.4,34.4L37.4,34.4z"></path>	<path class="st1" d="M141.7,52.7c-0.1,0.5-0.2,1-0.2,1.5c0,1.1,0.4,2.1,1.3,2.8c0,0,0,0,0.1,0.1l0.3,0.2l-4.9,0l0.3-0.2  c0.5-0.4,1-1,1.4-1.6c0.6-0.9,1.1-1.9,1.5-2.9l0.1-0.1l0.2,0.1L141.7,52.7L141.7,52.7z"></path>	<path class="st1" d="M153.5,44.5l-4.4-8.7l2-4.4l10.6,20.9c0.7,1.4,1.5,3.1,2.6,4.3l0.5,0.5l0.2,0.2h-6.2l0.1-0.2  c0.1-0.2,0.2-0.5,0.2-0.8c0-0.8-0.5-2-0.9-2.7L153.5,44.5L153.5,44.5L153.5,44.5z"></path></g><g class="st0">	<path class="st2" d="M90.1,5.6l1.2,4.2L90.5,10l-1.2-4.2L90.1,5.6z M80.1,14.8c-0.4,0-0.8,0-1.1-0.2c-0.4-0.2-0.7-0.5-0.9-0.8  c-0.2-0.3-0.3-0.7-0.3-1.1c0-0.4,0.1-0.8,0.3-1.1c0.2-0.4,0.5-0.7,0.8-0.9c0.4-0.3,0.8-0.4,1.2-0.4c0.4,0,0.8,0,1.1,0.2  c0.4,0.2,0.7,0.4,0.9,0.8c0.2,0.3,0.4,0.7,0.4,1.1c0,0.4-0.1,0.8-0.3,1.1c-0.2,0.4-0.5,0.7-0.9,0.9C80.9,14.6,80.5,14.7,80.1,14.8z   M79.4,13.9c0.2,0.1,0.5,0.2,0.8,0.2c0.2,0,0.5-0.1,0.7-0.3c0.3-0.1,0.4-0.3,0.5-0.6c0.1-0.2,0.2-0.5,0.2-0.7  c0-0.3-0.1-0.5-0.2-0.8c-0.2-0.3-0.4-0.4-0.6-0.5C80.5,11,80.2,11,80,11c-0.3,0-0.5,0.1-0.8,0.2c-0.2,0.2-0.4,0.4-0.5,0.6  c-0.1,0.2-0.2,0.5-0.2,0.8c0,0.3,0.1,0.5,0.3,0.8C78.9,13.6,79.1,13.8,79.4,13.9z M68.3,26.5c0.2,0.4,0.1,0.9-0.1,1.3  c-0.1,0.2-0.3,0.4-0.5,0.6c-0.2,0.1-0.4,0.2-0.7,0.2c-0.3,0-0.5-0.1-0.8-0.2c-0.3-0.1-0.5-0.3-0.6-0.5c-0.1-0.2-0.2-0.5-0.2-0.7  c0-0.3,0-0.6,0.2-0.8c0.2-0.4,0.6-0.7,1-0.8l-0.2-0.7c-0.3,0.1-0.6,0.2-0.8,0.4c-0.3,0.2-0.4,0.5-0.6,0.8c-0.2,0.4-0.3,0.8-0.3,1.2  c0,0.4,0.1,0.8,0.3,1.1c0.2,0.3,0.5,0.6,0.9,0.8c0.4,0.2,0.8,0.3,1.2,0.3c0.4,0,0.7-0.2,1.1-0.4c0.3-0.2,0.6-0.6,0.8-0.9  c0.2-0.3,0.3-0.6,0.3-0.9c0-0.3,0-0.6-0.1-0.9L68.3,26.5z M74.9,19.6l-3-3.1l1.3-1.2c0.3-0.3,0.5-0.4,0.8-0.5  c0.3-0.1,0.6-0.1,0.8-0.1c0.3,0,0.5,0.2,0.7,0.4c0.2,0.2,0.3,0.5,0.4,0.8c0,0.3,0,0.6-0.1,0.9l1.7,0.4l-0.6,0.6l-1.5-0.3  c0,0-0.1,0.1-0.1,0.1l-0.7,0.7l0.9,0.9L74.9,19.6z M74.2,17.6l0.7-0.6c0.3-0.2,0.4-0.5,0.4-0.7c0-0.2,0-0.5-0.2-0.7  c-0.2-0.2-0.4-0.3-0.6-0.3c-0.2,0-0.5,0.2-0.7,0.4L73,16.4L74.2,17.6z M128.5,21l0.5-0.5l-1.7-1.8l0.8-0.8l1.5,1.5l0.5-0.5  l-1.5-1.5l0.8-0.8l1.6,1.7l0.5-0.5l-2.2-2.3l-3.1,3L128.5,21z M70.6,25.1L68.2,21l0.5-0.7l4.7,0.9l-0.5,0.7l-1.1-0.2l-1.2,1.8  l0.6,0.9L70.6,25.1z M70.2,22.9l0.9-1.3l-2-0.4L70.2,22.9z M88,10l-2,0.9l-1.5-3.3L83.7,8l1.8,3.9l2.8-1.3L88,10z M122.1,15.2  l-0.6-0.5l2.7-3.4l1.4,1.1c0.3,0.2,0.5,0.5,0.7,0.8c0.1,0.3,0.2,0.5,0.2,0.8c0,0.3-0.1,0.5-0.3,0.8c-0.2,0.2-0.4,0.4-0.7,0.5  c-0.3,0.1-0.6,0.1-0.8,0c-0.3-0.1-0.6-0.2-0.9-0.5l-0.8-0.6L122.1,15.2z M123.3,13.7l0.7,0.6c0.3,0.2,0.5,0.3,0.8,0.3  c0.2,0,0.4-0.1,0.6-0.3c0.2-0.2,0.2-0.5,0.2-0.7c-0.1-0.2-0.2-0.5-0.5-0.7l-0.7-0.6L123.3,13.7z M97.3,8.6l0.6-0.1l-0.6-4.3  l-0.8,0.1l0.4,2.9l-2.7-2.6l-0.7,0.1L94.1,9l0.8-0.1L94.5,6L97.3,8.6z M120.2,9.2c0.2,0.3,0.3,0.7,0.4,1.1c0,0.4-0.1,0.8-0.2,1.2  c-0.2,0.4-0.5,0.7-0.8,0.9c-0.3,0.2-0.7,0.3-1.1,0.3c-0.4,0-0.8-0.1-1.2-0.3c-0.4-0.2-0.7-0.5-0.9-0.8c-0.2-0.3-0.4-0.7-0.4-1.1  c0-0.4,0-0.8,0.2-1.2c0.2-0.4,0.5-0.7,0.8-0.9c0.3-0.2,0.7-0.3,1.1-0.3c0.4,0,0.8,0.1,1.2,0.3C119.6,8.6,120,8.8,120.2,9.2z   M119.8,10.3c0-0.3-0.1-0.5-0.2-0.7c-0.1-0.2-0.4-0.4-0.6-0.5c-0.3-0.1-0.5-0.2-0.8-0.2c-0.3,0-0.5,0.1-0.7,0.2  c-0.2,0.2-0.4,0.4-0.5,0.6c-0.1,0.3-0.2,0.5-0.2,0.8c0,0.3,0.1,0.5,0.2,0.7c0.1,0.2,0.3,0.4,0.6,0.5c0.2,0.1,0.5,0.2,0.8,0.2  c0.2,0,0.5-0.1,0.7-0.2c0.2-0.1,0.4-0.3,0.5-0.6C119.7,10.8,119.8,10.5,119.8,10.3z M112.4,5.7l-0.8-0.2l-1.2,4.2l2.9,0.8l0.2-0.6  l-2.2-0.6L112.4,5.7z M104,7.8l-2.4,0l0-1.2l2.1,0l0-0.6l-2.1-0.1l0-1.1l2.4,0l0-0.7l-3.2-0.1l-0.1,4.3l3.2,0.1L104,7.8z   M135.5,23.2l-2.1-2.9l-0.5,0.4l1.5,2l-4-0.2l-0.4,0.3l2.2,3l0.5-0.4l-1.5-2.2l4,0.3L135.5,23.2z M122.4,73.8l4.1,2.4l-0.7,0.5  l-0.9-0.6l-1.7,1.3l0.2,1.1l-0.7,0.5l-1-4.6L122.4,73.8z M122.5,74.7l0.5,2l1.3-1L122.5,74.7z M127.9,68.9l2.1,2l-3.8-0.3l-0.5,0.5  l3.1,3l0.5-0.6l-2.1-2l3.8,0.3l0.5-0.5l-3.1-3L127.9,68.9z M118.6,78.7l0.5,1.2c-0.2,0.2-0.4,0.4-0.7,0.6c-0.3,0.1-0.6,0.2-0.8,0.1  c-0.3,0-0.5-0.1-0.7-0.3c-0.2-0.1-0.4-0.4-0.5-0.6c-0.1-0.3-0.2-0.6-0.1-0.8c0-0.3,0.1-0.5,0.3-0.7c0.2-0.2,0.4-0.4,0.7-0.5  c0.4-0.2,0.9-0.2,1.3,0l0.3-0.7c-0.3-0.1-0.6-0.2-0.9-0.2c-0.3,0-0.6,0.1-1,0.2c-0.4,0.2-0.7,0.4-1,0.8c-0.2,0.3-0.4,0.7-0.4,1.1  c0,0.4,0,0.8,0.2,1.1c0.2,0.4,0.4,0.7,0.8,0.9c0.3,0.2,0.7,0.4,1.1,0.4c0.4,0,0.8,0,1.2-0.2c0.3-0.1,0.5-0.3,0.8-0.5  c0.3-0.2,0.4-0.4,0.6-0.7l-0.7-1.6L118.6,78.7z M113.1,81.2c0.1,0.4,0.1,0.8-0.1,1.2c-0.1,0.4-0.3,0.7-0.6,1  c-0.3,0.3-0.7,0.5-1.1,0.5c-0.4,0.1-0.8,0.1-1.2,0s-0.7-0.3-1-0.6c-0.3-0.3-0.5-0.6-0.6-1c-0.1-0.4-0.1-0.8,0.1-1.2  c0.1-0.4,0.3-0.7,0.6-1c0.3-0.3,0.7-0.5,1.1-0.6c0.4-0.1,0.8-0.1,1.2,0c0.4,0.1,0.7,0.3,1,0.6C112.8,80.4,113,80.8,113.1,81.2z   M112.3,81.4c0-0.3-0.2-0.5-0.4-0.7c-0.2-0.2-0.4-0.3-0.7-0.4c-0.2-0.1-0.5-0.1-0.8,0c-0.3,0-0.5,0.2-0.7,0.4  c-0.2,0.2-0.3,0.4-0.4,0.7c-0.1,0.2-0.1,0.5,0,0.8c0,0.3,0.2,0.5,0.4,0.7c0.2,0.2,0.4,0.3,0.7,0.4c0.2,0.1,0.5,0.1,0.8,0  c0.3,0,0.5-0.2,0.7-0.4c0.2-0.2,0.3-0.4,0.4-0.7C112.4,81.9,112.4,81.7,112.3,81.4z M73.8,68.6l-2.4,0.3l0.9-2.3l-0.5-0.7L70.6,69  l-1.2,0.9l0.5,0.6l1.2-1l3.2-0.4L73.8,68.6z M97.7,81.4c0.2-0.1,0.4-0.1,0.7-0.1c0.2,0,0.4,0.1,0.6,0.1c0.2,0.1,0.4,0.2,0.6,0.3  l0.3-0.6c-0.1-0.1-0.4-0.2-0.6-0.3c-0.2-0.1-0.5-0.1-0.8-0.2c-0.4,0-0.7,0-1,0.1c-0.3,0.1-0.5,0.3-0.6,0.4  c-0.2,0.2-0.2,0.4-0.2,0.6c0,0.3,0,0.5,0.2,0.7c0.1,0.2,0.3,0.3,0.5,0.4c0.2,0.1,0.5,0.2,0.8,0.3c0.2,0.1,0.4,0.1,0.5,0.2  c0.1,0,0.2,0.1,0.3,0.2c0.1,0.1,0.1,0.2,0.1,0.3c0,0.2-0.1,0.3-0.3,0.4c-0.2,0.1-0.4,0.1-0.7,0.1c-0.3,0-0.5-0.1-0.8-0.2  c-0.3-0.1-0.5-0.2-0.6-0.4l-0.3,0.6c0.2,0.2,0.4,0.3,0.7,0.4c0.3,0.1,0.6,0.2,0.9,0.2c0.4,0,0.7,0,1-0.1c0.2-0.1,0.5-0.2,0.6-0.4  c0.2-0.2,0.2-0.4,0.3-0.6c0-0.3,0-0.5-0.2-0.7c-0.1-0.2-0.3-0.3-0.5-0.4c-0.2-0.1-0.5-0.2-0.8-0.3c-0.2-0.1-0.4-0.1-0.5-0.2  c-0.2-0.1-0.2-0.1-0.3-0.2c-0.1-0.1-0.1-0.2-0.1-0.3C97.5,81.6,97.6,81.5,97.7,81.4z M90.1,79.9c0.1,0.2,0.1,0.5,0,0.8  c-0.1,0.3-0.3,0.6-0.5,0.7c-0.2,0.2-0.5,0.3-0.8,0.3l0.5,1.7l-0.8-0.3L88,81.6c0,0-0.1,0-0.2,0l-0.9-0.3l-0.4,1.2l-0.8-0.2l1.3-4.1  l1.7,0.6c0.4,0.1,0.6,0.3,0.9,0.5C89.9,79.4,90,79.6,90.1,79.9z M89.2,79.8c-0.1-0.2-0.4-0.4-0.7-0.5L87.6,79l-0.5,1.6L88,81  c0.3,0.1,0.6,0.1,0.9,0c0.2-0.1,0.3-0.3,0.5-0.5C89.4,80.2,89.4,80,89.2,79.8z M82.6,78.5c-0.4,0.7-0.9,0.9-1.6,0.6  c-0.7-0.3-0.8-0.9-0.4-1.6l1.2-2.1L81.2,75L80,77.1c-0.3,0.5-0.4,1.1-0.3,1.5c0.1,0.4,0.5,0.8,1,1.1c0.5,0.3,1,0.4,1.5,0.2  c0.5-0.1,0.8-0.5,1.1-1l1.2-2.1l-0.7-0.4L82.6,78.5z M103.9,84.3l-0.3-3.6l-0.8,0.1l0.3,4.3l3-0.2l-0.1-0.7L103.9,84.3z M78.2,72.9  c0.1,0.4,0.2,0.7,0.1,1.1c-0.1,0.4-0.2,0.8-0.5,1.1c-0.3,0.3-0.6,0.5-1,0.7c-0.4,0.1-0.8,0.1-1.2,0.1c-0.4-0.1-0.8-0.3-1.1-0.6  c-0.4-0.3-0.6-0.6-0.7-1c-0.1-0.4-0.2-0.7-0.1-1.1c0.1-0.4,0.2-0.8,0.5-1.1c0.3-0.3,0.6-0.5,1-0.7c0.4-0.1,0.7-0.2,1.1-0.1  c0.4,0.1,0.8,0.3,1.1,0.5C77.8,72.2,78,72.5,78.2,72.9z M77.4,73.1c-0.1-0.2-0.3-0.5-0.5-0.6c-0.2-0.2-0.5-0.3-0.7-0.4  c-0.3,0-0.5,0-0.8,0.1c-0.3,0.1-0.5,0.3-0.7,0.5c-0.2,0.2-0.3,0.5-0.3,0.8c-0.1,0.2-0.1,0.5,0.1,0.8c0.1,0.2,0.3,0.4,0.5,0.6  c0.2,0.2,0.4,0.3,0.7,0.4c0.3,0,0.5,0,0.8-0.1c0.2-0.1,0.5-0.3,0.7-0.5c0.2-0.2,0.3-0.4,0.3-0.7C77.5,73.6,77.5,73.3,77.4,73.1z"></path>	<path class="st2" d="M145.8,45.9c-0.3-0.1-0.7,0-0.9,0.2c-2.3,2.9-7.4,7.2-18.6,3.4c-11.9-4-16.5-3.3-20.9,5.9  c-1.2,2.4-1.8,4.6-3,4.6c-1.2,0.1-1.8-10.5-1.3-16.1c4.2-2.2,7.7-11.5,7.7-15.6c0-2.4-1.2-4.7-3.3-4.6C99,24,96.7,36.8,96.9,47.6  c-1.6,3.7-3.8,8-5.4,8.1c-3.1,0.2-0.9-12.3,1-12.4c0.6,0,0.9,1.6,0.7,2.8c-0.1,0.4,0.2,0.7,0.5,0.8c0.4,0.1,0.7-0.1,0.8-0.5  c0.5-2.4-0.7-5.3-3.4-5.2c-1.5,0.1-2.7,1.4-3.5,3.3c-3.1,4-4,3.1-13.1-0.1c-7-2.5-16.1-2.4-20.5,3.8c-0.2,0.3-0.1,0.7,0.2,0.9  c0.3,0.1,0.7,0,0.9-0.2c2.3-2.9,7.5-7.5,18.6-3.4c9.8,3.6,10.3,3.7,13,1.6c-1.2,4.9-0.3,10.9,3.6,10.7c2.4-0.1,4.8-3.3,6.7-7.2  c0.4,6.7,1.8,12,3.8,11.9c3.5-0.2,4.2-3.4,5.9-6.8c3.7-7.6,6.8-9.1,18.9-5.1c7.1,2.4,16.1,2.4,20.5-3.8  C146.2,46.5,146.1,46.1,145.8,45.9z M106.4,25.9c0.9-0.2,1,1.2,1,2.4c0,3.3-2.9,12.2-6.2,14C101.6,38.5,103.9,26.5,106.4,25.9z"></path></g><g>	<g>		<path d="M5.3,28.8c0-0.2,0-0.4,0-0.6h0c-0.3,0.6-0.8,1-1.5,1c-0.8,0-1.3-0.4-1.3-1.1c0-0.9,0.7-1.3,2.2-1.3c0.3,0,0.5,0,0.6,0   v-0.4c0-0.9-0.4-1.3-1.2-1.3c-0.3,0-0.5,0.1-0.7,0.2c-0.2,0.1-0.3,0.2-0.5,0.4l-0.1-0.1c0.2-0.2,0.3-0.3,0.5-0.4   c0.2-0.1,0.5-0.2,0.8-0.2c0.9,0,1.4,0.4,1.4,1.4v2c0,0.2,0,0.4,0,0.6H5.3V28.8z M5.3,27.1c-0.2,0-0.4,0-0.6,0c-1.4,0-2,0.4-2,1.1   c0,0.6,0.4,0.9,1.2,0.9c0.7,0,1.2-0.3,1.5-1V27.1z"></path>		<path d="M29.1,29.2c0-0.2,0-0.4,0-0.6v-1.9c0-1-0.4-1.4-1.1-1.4c-0.8,0-1.3,0.6-1.3,1.4v1.9c0,0.2,0,0.4,0,0.6h-0.2   c0-0.2,0-0.4,0-0.6v-1.9c0-1-0.4-1.4-1.1-1.4c-0.8,0-1.3,0.6-1.3,1.4v2c0,0.2,0,0.4,0,0.6h-0.2c0-0.2,0-0.4,0-0.6v-2.8   c0-0.2,0-0.4,0-0.6H24v0.3c0,0.2,0,0.4,0,0.6h0c0.2-0.6,0.7-1,1.4-1c0.7,0,1.1,0.4,1.2,1c0.2-0.6,0.7-1,1.4-1   c0.8,0,1.3,0.5,1.3,1.5v2c0,0.2,0,0.4,0,0.6H29.1z"></path>		<path d="M38.7,23.8c0,0.1-0.1,0.2-0.2,0.2c-0.1,0-0.2-0.1-0.2-0.2c0-0.1,0.1-0.2,0.2-0.2C38.6,23.7,38.7,23.7,38.7,23.8z    M38.6,25.2c0,0.2,0,0.3,0,0.6v2.8c0,0.3,0,0.4,0,0.6h-0.2c0-0.2,0-0.3,0-0.6v-2.8c0-0.3,0-0.4,0-0.6H38.6z"></path>		<path d="M50.6,29.2c0-0.2,0-0.3,0-0.6v-2c0-0.9-0.4-1.3-1.2-1.3c-0.9,0-1.5,0.6-1.5,1.4v1.9c0,0.3,0,0.4,0,0.6h-0.2   c0-0.2,0-0.3,0-0.6v-2.8c0-0.3,0-0.4,0-0.6h0.2v0.3c0,0.2,0,0.4,0,0.6h0c0.2-0.6,0.8-1,1.5-1c0.9,0,1.4,0.5,1.4,1.5v2   c0,0.3,0,0.4,0,0.6H50.6z"></path>		<path d="M60.3,23.8c0,0.1-0.1,0.2-0.2,0.2c-0.1,0-0.2-0.1-0.2-0.2c0-0.1,0.1-0.2,0.2-0.2C60.2,23.7,60.3,23.7,60.3,23.8z    M60.2,25.2c0,0.2,0,0.3,0,0.6v2.8c0,0.3,0,0.4,0,0.6H60c0-0.2,0-0.3,0-0.6v-2.8c0-0.3,0-0.4,0-0.6H60.2z"></path>		<path d="M74.5,29.2c0-0.2,0-0.4,0-0.6v-1.9c0-1-0.4-1.4-1.1-1.4c-0.8,0-1.3,0.6-1.3,1.4v1.9c0,0.2,0,0.4,0,0.6h-0.2   c0-0.2,0-0.4,0-0.6v-1.9c0-1-0.4-1.4-1.1-1.4c-0.8,0-1.3,0.6-1.3,1.4v2c0,0.2,0,0.4,0,0.6h-0.2c0-0.2,0-0.4,0-0.6v-2.8   c0-0.2,0-0.4,0-0.6h0.2v0.3c0,0.2,0,0.4,0,0.6h0c0.2-0.6,0.7-1,1.4-1c0.7,0,1.1,0.4,1.2,1c0.2-0.6,0.7-1,1.4-1   c0.8,0,1.3,0.5,1.3,1.5v2c0,0.2,0,0.4,0,0.6H74.5z"></path>		<path d="M86.2,28.8c0-0.2,0-0.4,0-0.6h0c-0.3,0.6-0.8,1-1.5,1c-0.8,0-1.3-0.4-1.3-1.1c0-0.9,0.7-1.3,2.2-1.3c0.3,0,0.5,0,0.6,0   v-0.4c0-0.9-0.4-1.3-1.2-1.3c-0.3,0-0.5,0.1-0.7,0.2c-0.2,0.1-0.3,0.2-0.5,0.4l-0.1-0.1c0.2-0.2,0.3-0.3,0.5-0.4   c0.2-0.1,0.5-0.2,0.8-0.2c0.9,0,1.4,0.4,1.4,1.4v2c0,0.2,0,0.4,0,0.6h-0.2V28.8z M86.2,27.1c-0.2,0-0.4,0-0.6,0   c-1.4,0-2,0.4-2,1.1c0,0.6,0.4,0.9,1.2,0.9c0.7,0,1.2-0.3,1.5-1V27.1z"></path>		<path d="M95.8,23.4c0,0.2,0,0.3,0,0.6v4.6c0,0.3,0,0.4,0,0.6h-0.2c0-0.2,0-0.3,0-0.6v-4.6c0-0.3,0-0.4,0-0.6H95.8z"></path>		<path d="M116.6,28.8c0-0.2,0-0.4,0-0.6h0c-0.3,0.6-0.8,1-1.5,1c-0.8,0-1.3-0.4-1.3-1.1c0-0.9,0.7-1.3,2.2-1.3c0.3,0,0.5,0,0.6,0   v-0.4c0-0.9-0.4-1.3-1.2-1.3c-0.3,0-0.5,0.1-0.7,0.2c-0.2,0.1-0.3,0.2-0.5,0.4l-0.1-0.1c0.2-0.2,0.3-0.3,0.5-0.4   c0.2-0.1,0.5-0.2,0.8-0.2c0.9,0,1.4,0.4,1.4,1.4v2c0,0.2,0,0.4,0,0.6h-0.2V28.8z M116.6,27.1c-0.2,0-0.4,0-0.6,0   c-1.4,0-2,0.4-2,1.1c0,0.6,0.4,0.9,1.2,0.9c0.7,0,1.2-0.3,1.5-1V27.1z"></path>		<path d="M126.2,23.4c0,0.2,0,0.3,0,0.6v4.6c0,0.3,0,0.4,0,0.6h-0.2c0-0.2,0-0.3,0-0.6v-4.6c0-0.3,0-0.4,0-0.6H126.2z"></path>		<path d="M135.5,26.4c0.2-0.8,0.8-1.3,1.6-1.3c1.1,0,1.8,0.8,1.8,2.1c0,1.2-0.7,2.1-1.8,2.1c-0.8,0-1.4-0.5-1.6-1.3h0   c0,0.1,0,0.4,0,0.7v1.7c0,0.3,0,0.4,0,0.6h-0.2c0-0.2,0-0.3,0-0.6v-4.6c0-0.3,0-0.4,0-0.6h0.2v0.6C135.5,26,135.5,26.2,135.5,26.4   L135.5,26.4z M138.7,27.2c0-1.2-0.6-1.9-1.6-1.9c-1,0-1.6,0.7-1.6,1.9c0,1.2,0.6,1.9,1.6,1.9C138.1,29.1,138.7,28.3,138.7,27.2z"></path>		<path d="M150.4,29.2c0-0.2,0-0.3,0-0.6v-2c0-0.9-0.4-1.3-1.2-1.3c-0.9,0-1.5,0.6-1.5,1.4v1.9c0,0.3,0,0.4,0,0.6h-0.2   c0-0.2,0-0.3,0-0.6v-4.6c0-0.3,0-0.4,0-0.6h0.2c0,0.2,0,0.3,0,0.6v2.1c0.2-0.6,0.8-1,1.5-1c0.9,0,1.4,0.5,1.4,1.5v2   c0,0.3,0,0.4,0,0.6H150.4z"></path>		<path d="M162.1,28.8c0-0.2,0-0.4,0-0.6h0c-0.3,0.6-0.8,1-1.5,1c-0.8,0-1.3-0.4-1.3-1.1c0-0.9,0.7-1.3,2.2-1.3c0.3,0,0.5,0,0.6,0   v-0.4c0-0.9-0.4-1.3-1.2-1.3c-0.3,0-0.5,0.1-0.7,0.2c-0.2,0.1-0.3,0.2-0.5,0.4l-0.1-0.1c0.2-0.2,0.3-0.3,0.5-0.4   c0.2-0.1,0.5-0.2,0.8-0.2c0.9,0,1.4,0.4,1.4,1.4v2c0,0.2,0,0.4,0,0.6h-0.2V28.8z M162.1,27.1c-0.2,0-0.4,0-0.6,0   c-1.4,0-2,0.4-2,1.1c0,0.6,0.4,0.9,1.2,0.9c0.7,0,1.2-0.3,1.5-1V27.1z"></path>		<path d="M171.5,26.4c0.2-0.8,0.8-1.3,1.6-1.3c1.1,0,1.8,0.8,1.8,2.1c0,1.2-0.7,2.1-1.8,2.1c-0.8,0-1.4-0.5-1.6-1.3h0   c0,0.1,0,0.3,0,0.5v0.6h-0.2c0-0.2,0-0.3,0-0.6v-4.6c0-0.3,0-0.4,0-0.6h0.2c0,0.2,0,0.3,0,0.6v1.9C171.6,26,171.6,26.2,171.5,26.4   L171.5,26.4z M174.7,27.2c0-1.2-0.6-1.9-1.6-1.9c-1,0-1.6,0.7-1.6,1.9c0,1.2,0.6,1.9,1.6,1.9C174.1,29.1,174.7,28.3,174.7,27.2z"></path>		<path d="M183.5,27.1L183.5,27.1c0,1.2,0.7,2,1.7,2c0.4,0,0.8-0.1,1.1-0.3c0.1-0.1,0.2-0.2,0.3-0.3l0.1,0.1   c-0.1,0.1-0.2,0.2-0.3,0.3c-0.3,0.3-0.8,0.4-1.2,0.4c-1.1,0-1.9-0.8-1.9-2.1c0-1.3,0.7-2.1,1.8-2.1c1.1,0,1.7,0.7,1.7,1.9v0.1   H183.5z M186.7,27c0-1.1-0.5-1.7-1.5-1.7c-1,0-1.6,0.6-1.6,1.7H186.7z"></path>		<path d="M197.5,29.1c-0.2,0.1-0.4,0.1-0.6,0.1c-0.7,0-1-0.4-1-0.9v-2.9h-0.4c-0.3,0-0.4,0-0.6,0v-0.2c0.2,0,0.3,0,0.6,0h0.4v-0.7   c0-0.3,0-0.4,0-0.6h0.2c0,0.2,0,0.3,0,0.6v0.7h0.7c0.3,0,0.4,0,0.6,0v0.2c-0.2,0-0.3,0-0.6,0H196v2.9c0,0.5,0.3,0.8,0.9,0.8   c0.2,0,0.4,0,0.5-0.1L197.5,29.1z"></path>	</g>	<g>		<rect x="75.6" y="36.6" width="4.5" height="28.9"></rect>		<path d="M46.3,36.3c2.8,0,5.4,1.1,7,2.9c2.3,2.6,2.3,5.9,2.3,9.6v16.7H51V48.8c0-3.2,0-5.4-1.2-6.7c-0.8-0.9-2.1-1.4-3.6-1.4   c-1.5,0-2.8,0.5-3.6,1.4c-1.2,1.4-1.2,3.5-1.2,6.7v16.7h-4.5V48.8c0-3.7,0-7,2.3-9.6C40.9,37.4,43.4,36.3,46.3,36.3z"></path>		<g>			<path d="M197.5,36.6h-10.3c-3.6,0-6.5,2.9-6.5,6.5v16c0,3.6,2.9,6.5,6.5,6.5h10.3v-4.3h-9c-1.8,0-3.2-1.4-3.2-3.2V44.2    c0-1.8,1.5-3.2,3.2-3.2h9V36.6z"></path>			<path d="M189.5,50.9c0,1.3,1,2.3,2.3,2.3c1.3,0,2.3-1,2.3-2.3c0-1.3-1-2.3-2.3-2.3C190.5,48.6,189.5,49.7,189.5,50.9z"></path>		</g>		<g>			<path d="M118.5,40.8c-1.7-2.8-4.9-4.4-8.5-4.4c-3.7,0-6.9,1.7-8.5,4.4c-1.6,2.6-1.6,5.3-1.6,10.3c0,4.9,0,7.7,1.6,10.3    c1.7,2.8,4.9,4.4,8.5,4.4c3.7,0,6.9-1.7,8.5-4.4c1.6-2.6,1.6-5.3,1.6-10.3C120.1,46.1,120.1,43.4,118.5,40.8z M114.6,59.1    c-0.9,1.4-2.6,2.3-4.6,2.3c-2,0-3.8-0.9-4.6-2.3c-1-1.6-1-4-1-8.1c0-4,0-6.5,1-8.1c0.9-1.4,2.6-2.3,4.6-2.3s3.8,0.9,4.6,2.3    c1,1.6,1,4,1,8.1C115.5,55.1,115.5,57.5,114.6,59.1z"></path>			<path d="M121.5,60.9c-1.3,0-2.3,1-2.3,2.3c0,1.3,1,2.3,2.3,2.3c1.3,0,2.3-1,2.3-2.3C123.8,62,122.7,60.9,121.5,60.9z"></path>		</g>		<g>			<path d="M10.5,61.3c-0.9-0.2-1.7-0.6-2.2-1.2C7,58.7,7,56.5,7,53.3V36.6H2.5v16.7c0,3.7,0,7,2.3,9.6c1.4,1.5,3.4,2.5,5.6,2.8    V61.3z"></path>			<path d="M16.6,36.6v16.7c0,3.2,0,5.4-1.2,6.7c-0.6,0.6-1.3,1-2.2,1.2v4.4c2.3-0.3,4.3-1.3,5.6-2.8c2.3-2.6,2.3-5.9,2.3-9.6V36.6    H16.6z"></path>		</g>		<g>			<path d="M150,61.3c-0.9-0.2-1.7-0.6-2.2-1.2c-1.2-1.4-1.2-3.5-1.2-6.7V36.6H142v16.7c0,3.7,0,7,2.3,9.6c1.4,1.5,3.4,2.5,5.6,2.8    V61.3z"></path>			<path d="M156.1,36.6v16.7c0,3.2,0,5.4-1.2,6.7c-0.6,0.6-1.3,1-2.2,1.2v4.4c2.3-0.3,4.3-1.3,5.6-2.8c2.3-2.6,2.3-5.9,2.3-9.6V36.6    H156.1z"></path>		</g>	</g></g><g class="st0">	<path class="st2" d="M87.1,45.2c0,0,0.3,0.2,0.9,0.4c0.5,0.4,0.8,0.7,0.9,0.9H89c0,0,0.3-0.5,1-1.5c0.2-0.2,0.3-0.3,0.3-0.4H90  L87.1,45.2L87.1,45.2L87.1,45.2z M95,41.8L95,41.8c2.6-0.4,6.1-0.7,10.6-1.1c0.4,0,0.9-0.1,1.5-0.1c0.1-0.4,0.7-1.4,1.6-3.1  c0.8-1.6,2-3.9,3.5-6.9c1.4-2.9,2.6-5.7,3.7-8.4c0.6-1.6,1.1-3.2,1.5-4.6c0.3-1,0.4-1.7,0.4-2.1c0-0.1,0-0.2,0-0.2h-0.1  c-0.2,0-0.8,0.4-1.7,1.1c-0.8,0.7-2,1.8-3.5,3.3c-0.7,0.7-1.3,1.4-2,2.2c-0.9,1-1.4,1.7-1.7,2c0,0-0.4,0.4-1.1,1.2l-2.5,3  c0,0.1-0.1,0.2-0.2,0.3c0,0.1-0.5,0.6-1.2,1.6c-0.6,0.7-0.8,1.1-0.9,1.1c0,0-0.2,0.2-0.4,0.6c0,0.1-0.2,0.4-0.7,0.9  c0,0-0.1,0.2-0.4,0.5c-1,1.3-1.8,2.3-2.2,3c-0.2,0.2-0.5,0.6-1,1.4c-0.6,0.8-1.4,1.9-2.4,3.3C95.2,41.3,95,41.7,95,41.8L95,41.8  L95,41.8z M117.9,13.1c0.6,0,1.1,0.3,1.5,0.9c0.2,0.3,0.3,0.8,0.4,1.4v0.2c0,1.2-0.5,3.1-1.4,5.7c-0.1,0.1-0.3,0.6-0.6,1.5  c0,0.1-0.2,0.6-0.6,1.4c-1.2,2.9-2.5,5.7-3.7,8.2c0,0-0.1,0.3-0.4,0.8l-0.4,0.8c-0.1,0.1-0.2,0.5-0.5,1c-0.2,0.3-0.4,0.8-0.7,1.5  c-0.1,0.1-0.3,0.4-0.5,0.9c-1,1.9-1.5,2.8-1.5,2.8h0c4.9-0.3,11-0.4,18.4-0.4c1.2,0,3.1,0,5.5,0.1c0.5,0.2,0.8,0.4,0.8,0.7  c0.1,0.1,0.1,0.3,0.1,0.4c0,0.3-0.1,0.6-0.4,0.9c-0.2,0.1-0.4,0.2-0.6,0.2c-0.1,0-0.2,0-0.3,0c-2.1,0-3.7,0-4.8,0h-2.5  c-2.8,0-7.1,0.1-12.8,0.3c-1,0.1-2.4,0.1-4.2,0.2c-0.3,0-0.4,0.1-0.4,0.3c-0.2,0.3-0.4,0.6-0.6,1l-2.5,4.7  c-0.1,0.2-0.3,0.6-0.7,1.3c0,0-0.2,0.3-0.5,0.9c-0.6,1.1-1.2,2.2-1.8,3.3c0,0-0.2,0.3-0.6,0.9c0,0-0.8,1.4-2.4,4.2  c-0.2,0.4-0.5,0.6-0.8,0.6c0,0-0.1,0-0.2,0c-0.5,0-0.8-0.3-1-0.8l0-0.3c0-0.3,0.2-0.7,0.6-1.4c0-0.1,0.4-0.7,1.1-2l1.7-3.1  c1.4-2.5,2.6-4.7,3.6-6.5c1-1.9,1.6-2.9,1.6-3l-0.1,0.1h-0.1c-2.5,0.2-4.7,0.4-6.6,0.6c-0.1,0-0.5,0.1-1.2,0.1l-4.6,0.6  c-1,1.3-1.6,2.3-2,2.8c-0.5,0.7-1.2,1.7-2.2,3.2c-0.1,0.1-0.2,0.3-0.4,0.6c-0.2,0.3-0.5,0.4-0.8,0.4h-0.2c-0.4,0-0.7-0.3-0.9-0.8  v-0.5l0.4-0.9c0.1-0.3,0.2-0.5,0.2-0.7v-0.2c0-0.4-0.4-0.7-1.1-1c-0.9-0.3-2-0.4-3.1-0.4c-1.1,0-2.5,0.1-4.3,0.4  c-1.1,0.2-1.7,0.4-1.8,0.4h-0.1c-0.5,0-0.8-0.3-1-0.9c0-0.1,0-0.2-0.1-0.2c0.1-0.3,0.2-0.6,0.4-0.8c0.3-0.2,0.8-0.3,1.5-0.5  c0.3-0.2,1.3-0.4,2.8-0.8c2-0.5,3-0.7,3.1-0.7c0.1-0.1,0.8-0.2,2-0.4c0,0,0.5-0.1,1.4-0.3c1.1-0.3,2.8-0.5,4.9-0.9  c0.2-0.1,0.5-0.5,0.9-1.2c1-1.4,1.6-2.1,1.6-2.1l3.7-5c1.4-1.9,3.1-4.1,5-6.6l1.4-1.8c0,0,0.2-0.2,0.4-0.5c0.1,0,0.3-0.3,0.6-0.6  c1.5-1.8,3-3.5,4.3-5c1.4-1.6,2.7-2.9,3.9-4c1.3-1.1,2.4-1.8,3.2-2.1C117.2,13.2,117.5,13.2,117.9,13.1L117.9,13.1L117.9,13.1z"></path>	<path class="st2" d="M101.3,71.4c-0.2,0-0.4,0-0.7,0c-0.3,0-0.6,0-0.7,0c-9.7,0-18.5-3.9-24.9-10.3C68.8,54.8,64.8,46,64.8,36.3  c0-9.7,3.9-18.5,10.3-24.9C81.5,5.1,90.3,1.1,100,1.1s18.5,3.9,24.9,10.3c6.4,6.4,10.3,15.2,10.3,24.9c0,0.9,0,1.8-0.1,2.8  c-0.1,0.9-0.2,1.8-0.3,2.7l-1.5-0.2c0.1-0.9,0.2-1.7,0.3-2.6c0.1-0.9,0.1-1.7,0.1-2.6c0-9.3-3.8-17.7-9.9-23.8  c-6.1-6.1-14.5-9.9-23.8-9.9c-9.3,0-17.7,3.8-23.8,9.9c-6.1,6.1-9.9,14.5-9.9,23.8c0,9.3,3.8,17.7,9.9,23.8  c6.1,6.1,14.5,9.9,23.8,9.9c0.3,0,0.5,0,0.6,0c0.2,0,0.4,0,0.6,0L101.3,71.4L101.3,71.4z"></path>	<path class="st2" d="M73.2,81.4c0.3,0,0.6-0.1,0.7-0.2c0.1-0.1,0.2-0.3,0.2-0.5c0-0.2-0.1-0.4-0.2-0.5c-0.1-0.1-0.3-0.1-0.7-0.1  h-0.7v1.2H73.2L73.2,81.4L73.2,81.4z M74.6,80.7c0,0.6-0.2,0.9-0.7,1.1l0.9,1.3H74l-0.8-1.2h-0.8v1.2h-0.6v-3.5h1.3  c0.5,0,0.9,0.1,1.1,0.3C74.5,80,74.6,80.3,74.6,80.7L74.6,80.7L74.6,80.7z M85.7,79.6v0.6h-1.8v0.9h1.7v0.5h-1.7v0.9h1.9v0.6h-2.5  v-3.5H85.7L85.7,79.6L85.7,79.6z M96.3,81.7l-0.6-1.4l-0.6,1.4H96.3L96.3,81.7L96.3,81.7z M94.8,82.3l-0.3,0.8h-0.6l1.5-3.5H96  l1.5,3.5h-0.6l-0.3-0.8H94.8L94.8,82.3L94.8,82.3z M107.2,80.1v2.9h-0.6v-2.9h-1.1v-0.5h2.7v0.5H107.2L107.2,80.1L107.2,80.1z   M116.7,83.1h0.6v-3.5h-0.6V83.1L116.7,83.1z M127.7,83.1H127l-1.4-3.5h0.7l1.1,2.6l1.1-2.6h0.7L127.7,83.1L127.7,83.1L127.7,83.1z   M139.8,79.6v0.6H138v0.9h1.7v0.5H138v0.9h1.9v0.6h-2.5v-3.5H139.8L139.8,79.6L139.8,79.6z M61.9,82.5c0.2,0,0.4,0,0.5-0.1  c0.1-0.1,0.3-0.2,0.5-0.3l0.4,0.4c-0.4,0.4-0.8,0.6-1.3,0.6c-0.5,0-1-0.2-1.3-0.5c-0.3-0.3-0.5-0.8-0.5-1.3c0-0.5,0.2-0.9,0.5-1.3  c0.4-0.3,0.8-0.5,1.3-0.5c0.5,0,1,0.2,1.3,0.6L63,80.5c-0.2-0.2-0.3-0.3-0.5-0.3c-0.1-0.1-0.3-0.1-0.5-0.1c-0.3,0-0.6,0.1-0.9,0.3  c-0.2,0.2-0.4,0.5-0.4,0.9c0,0.4,0.1,0.6,0.4,0.9C61.3,82.4,61.6,82.5,61.9,82.5L61.9,82.5L61.9,82.5z"></path>	<path class="st2" d="M86.6,87.8C86.5,88,86.3,88,86.2,88c-0.2,0-0.4-0.1-0.5-0.2c-0.1-0.1-0.2-0.3-0.2-0.5c0-0.2,0.1-0.3,0.2-0.5  c0.1-0.1,0.3-0.2,0.5-0.2c0.2,0,0.4,0.1,0.5,0.2c0.1,0.1,0.2,0.3,0.2,0.5C86.9,87.6,86.8,87.7,86.6,87.8L86.6,87.8L86.6,87.8z   M86.5,87c-0.1-0.1-0.2-0.1-0.3-0.1c-0.1,0-0.2,0-0.3,0.1c-0.1,0.1-0.1,0.2-0.1,0.3c0,0.1,0,0.2,0.1,0.3c0.1,0.1,0.2,0.1,0.3,0.1  c0.1,0,0.2,0,0.3-0.1c0.1-0.1,0.1-0.2,0.1-0.3C86.6,87.2,86.6,87.1,86.5,87L86.5,87L86.5,87z M89.5,87.7c0.1,0.1,0.1,0.1,0.2,0.1  c0.1,0,0.2,0,0.2-0.1c0.1-0.1,0.1-0.2,0.1-0.3v-0.7h0.2v0.7c0,0.2-0.1,0.3-0.2,0.4C90,88,89.9,88,89.7,88c-0.2,0-0.3,0-0.4-0.1  c-0.1-0.1-0.2-0.2-0.2-0.4v-0.7h0.2v0.7C89.4,87.6,89.4,87.7,89.5,87.7L89.5,87.7L89.5,87.7z M93.2,87.4c0.1,0,0.2,0,0.3-0.1  c0,0,0.1-0.1,0.1-0.2s0-0.1-0.1-0.2c0,0-0.1,0-0.3,0h-0.3v0.5H93.2L93.2,87.4L93.2,87.4z M93.7,87.2c0,0.2-0.1,0.3-0.3,0.4l0.3,0.5  h-0.3l-0.3-0.4h-0.3V88h-0.2v-1.3h0.5c0.2,0,0.3,0,0.4,0.1C93.7,86.9,93.7,87,93.7,87.2L93.7,87.2L93.7,87.2z M97.7,86.9V88h-0.2  v-1.1H97v-0.2h1v0.2H97.7L97.7,86.9L97.7,86.9z M101.1,87.5l-0.2-0.5l-0.2,0.5H101.1L101.1,87.5L101.1,87.5z M100.5,87.7l-0.1,0.3  h-0.2l0.6-1.3h0.2l0.6,1.3h-0.2l-0.1-0.3H100.5L100.5,87.7L100.5,87.7z M104.7,87.4h0.2v0.4c-0.1,0.1-0.3,0.2-0.5,0.2  c-0.2,0-0.4-0.1-0.5-0.2c-0.1-0.1-0.2-0.3-0.2-0.5c0-0.2,0.1-0.3,0.2-0.5c0.1-0.1,0.3-0.2,0.5-0.2c0.2,0,0.4,0.1,0.5,0.2l-0.1,0.2  c-0.1,0-0.1-0.1-0.2-0.1c-0.1,0-0.1,0-0.2,0c-0.1,0-0.2,0-0.3,0.1c-0.1,0.1-0.1,0.2-0.1,0.3c0,0.1,0,0.2,0.1,0.3  c0.1,0.1,0.2,0.1,0.3,0.1c0.1,0,0.2,0,0.3-0.1V87.4L104.7,87.4z M107.3,88v-1.3h0.2v1.1h0.6V88H107.3L107.3,88L107.3,88z M110.4,88  h0.2v-1.3h-0.2V88L110.4,88z M114,86.7h0.2V88H114l-0.8-0.9V88H113v-1.3h0.2l0.8,0.9V86.7L114,86.7z M117.6,86.7v0.2h-0.7v0.3h0.6  v0.2h-0.6v0.3h0.7V88h-1v-1.3H117.6L117.6,86.7L117.6,86.7z M82.8,88h-0.2v-0.5l-0.5-0.8h0.2l0.4,0.6l0.4-0.6h0.2l-0.5,0.8V88  L82.8,88z"></path>	<path class="st2" d="M98.5,59.5l0.5-1.6c0.8,0,1.5-0.4,2.1-1.2c0.6-0.7,1.1-1.9,1.6-3.6c0.2-0.8,0.4-1.7,0.7-2.8  c0.3-1.5,0.8-2.3,1.5-2.3c0.6,0,1.1,0,1.4,0.1c0.3,0.1,0.4,0.2,0.4,0.4c0,0.1-0.3,0.8-0.7,2c-0.5,1.2-0.9,2.4-1.3,3.5  c1.3-2.1,2.4-3.6,3.3-4.5c0.9-0.9,1.8-1.3,2.6-1.3c0.5,0,0.8,0.1,1.1,0.4c0.3,0.3,0.4,0.6,0.4,1.1c0,0.3-0.1,0.8-0.4,1.5  c-0.2,0.7-0.6,1.6-1.2,2.8c1.5-2.4,2.7-3.9,3.5-4.6c0.8-0.7,1.6-1.1,2.5-1.1c0.6,0,1,0.1,1.3,0.4c0.3,0.3,0.5,0.7,0.5,1.2  c0,0.6-0.5,2.1-1.5,4.5l-0.2,0.5c-0.2,0.4-0.3,0.9-0.4,1.3c-0.1,0.4-0.2,0.7-0.2,0.9c0,0.3,0.1,0.5,0.4,0.6  c0.2,0.1,0.7,0.2,1.3,0.2l-0.4,1.6h-0.1c-1.4,0-2.4-0.2-3-0.5c-0.6-0.3-0.9-0.9-0.9-1.6c0-0.5,0.3-1.5,1-3.1c0.2-0.4,0.3-0.8,0.4-1  c0.3-0.7,0.5-1.3,0.6-1.6c0.1-0.3,0.1-0.5,0.1-0.6c0-0.1,0-0.2-0.1-0.3c0-0.1-0.1-0.1-0.2-0.1c-0.3,0-1,0.6-2,1.8  c-1,1.2-1.9,2.6-2.7,4.3c-0.2,0.5-0.4,1-0.7,1.6c-0.3,0.7-0.8,1.1-1.4,1.1c-0.6,0-1,0-1.2-0.1c-0.2-0.1-0.3-0.2-0.3-0.4  c0-0.1,0.2-0.6,0.5-1.5c0.4-0.8,0.7-1.6,0.9-2.2c0.6-1.5,1-2.6,1.2-3.1c0.2-0.5,0.2-0.9,0.2-1.1c0-0.1,0-0.3-0.1-0.3  c-0.1-0.1-0.2-0.1-0.3-0.1c-0.4,0-1.1,0.6-2,1.8c-1,1.2-1.7,2.5-2.4,3.9c-0.3,0.6-0.5,1.2-0.8,1.9c-0.3,0.7-0.4,1-0.4,1  c-0.1,0.1-0.3,0.2-0.5,0.3c-0.2,0.1-0.5,0.1-1,0.1c-0.3,0-0.5,0-0.7-0.1c-0.1-0.1-0.2-0.2-0.2-0.3c0-0.1,0.1-0.3,0.2-0.7  c0-0.1,0-0.1,0-0.1c-0.3,0.4-0.7,0.6-1.2,0.8C99.6,59.3,99.1,59.4,98.5,59.5L98.5,59.5L98.5,59.5z"></path>	<path class="st1" d="M119.4,57c0.7,0,1.3,0.6,1.3,1.3c0,0.7-0.6,1.3-1.3,1.3c-0.7,0-1.3-0.6-1.3-1.3C118.1,57.6,118.7,57,119.4,57  L119.4,57L119.4,57z"></path></g><g class="st0">	<path class="st1" d="M43.9,70.3v-9.6h0.2l6.4,7.4v-7.4h1v9.6h-0.2L44.9,63v7.3H43.9L43.9,70.3z M60.2,60.7l4.5,9.6h-1l-1.5-3.2H58  l-1.5,3.2h-1.1l4.5-9.6H60.2L60.2,60.7z M60.1,62.7l-1.7,3.5h3.3L60.1,62.7L60.1,62.7z M73.2,60.5c1.5,0,2.7,0.5,3.7,1.5  c1,1,1.5,2.2,1.5,3.6c0,1.4-0.5,2.6-1.5,3.6c-1,1-2.2,1.5-3.6,1.5c-1.4,0-2.6-0.5-3.6-1.5c-1-1-1.5-2.2-1.5-3.5  c0-0.9,0.2-1.8,0.7-2.6c0.4-0.8,1.1-1.4,1.8-1.9C71.5,60.7,72.3,60.5,73.2,60.5L73.2,60.5z M73.3,61.4c-0.7,0-1.4,0.2-2,0.6  c-0.6,0.4-1.1,0.9-1.5,1.5c-0.4,0.6-0.5,1.3-0.5,2.1c0,1.1,0.4,2.1,1.2,2.9c0.8,0.8,1.8,1.2,2.9,1.2c0.7,0,1.4-0.2,2.1-0.5  c0.6-0.4,1.1-0.9,1.5-1.5c0.4-0.6,0.5-1.3,0.5-2.1c0-0.8-0.2-1.5-0.5-2.1c-0.4-0.6-0.9-1.1-1.5-1.5C74.7,61.6,74,61.4,73.3,61.4  L73.3,61.4z M82.3,70.3l1.3-9.6h0.2l3.9,7.9l3.9-7.9h0.1l1.4,9.6h-0.9l-1-6.9l-3.4,6.9h-0.3l-3.4-7l-0.9,7H82.3L82.3,70.3z   M97.3,60.7h1v9.6h-1V60.7L97.3,60.7z M109,60.7h1v8.7h3.7v0.9H109V60.7L109,60.7z M117.7,60.7h1v5.8c0,0.7,0,1.1,0,1.3  c0,0.4,0.2,0.7,0.3,1c0.2,0.3,0.4,0.5,0.8,0.6c0.4,0.2,0.7,0.3,1.1,0.3c0.3,0,0.6-0.1,0.9-0.2c0.3-0.1,0.5-0.3,0.7-0.6  c0.2-0.2,0.3-0.5,0.4-0.9c0.1-0.2,0.1-0.7,0.1-1.5v-5.8h1v5.8c0,0.9-0.1,1.6-0.3,2.1c-0.2,0.5-0.5,1-1,1.4  c-0.5,0.4-1.1,0.6-1.8,0.6c-0.8,0-1.4-0.2-2-0.6c-0.6-0.4-0.9-0.9-1.1-1.5c-0.1-0.4-0.2-1.1-0.2-2V60.7L117.7,60.7z M137.8,62.5  l-0.8,0.6c-0.4-0.5-0.9-1-1.5-1.2c-0.6-0.3-1.2-0.4-1.9-0.4c-0.8,0-1.5,0.2-2.1,0.6c-0.7,0.4-1.2,0.9-1.5,1.5  c-0.4,0.6-0.5,1.3-0.5,2.1c0,1.2,0.4,2.2,1.2,2.9c0.8,0.8,1.8,1.2,3,1.2c1.3,0,2.5-0.5,3.4-1.6l0.8,0.6c-0.5,0.6-1.1,1.1-1.8,1.4  c-0.7,0.3-1.5,0.5-2.4,0.5c-1.7,0-3-0.6-4-1.7c-0.8-0.9-1.2-2.1-1.2-3.4c0-1.4,0.5-2.6,1.5-3.6c1-1,2.2-1.4,3.7-1.4  c0.9,0,1.7,0.2,2.4,0.5C136.8,61.3,137.4,61.8,137.8,62.5L137.8,62.5z M142,60.7h1v9.6h-1V60.7L142,60.7z M151.6,60.7l4.5,9.6h-1  l-1.5-3.2h-4.2l-1.5,3.2h-1.1l4.5-9.6H151.6L151.6,60.7z M151.4,62.7l-1.7,3.5h3.3L151.4,62.7z"></path>	<path class="st1" d="M59,75.8h0.9c0.5,0,0.9,0,1.1,0.1c0.3,0.1,0.5,0.2,0.6,0.4c0.2,0.2,0.2,0.4,0.2,0.7c0,0.3-0.1,0.6-0.2,0.7  c-0.2,0.2-0.4,0.3-0.7,0.4c-0.2,0-0.6,0.1-1.2,0.1h-0.3v2.1H59V75.8L59,75.8z M59.5,76.3v1.5l0.8,0c0.3,0,0.5,0,0.7-0.1  c0.1-0.1,0.3-0.1,0.3-0.3c0.1-0.1,0.1-0.3,0.1-0.4c0-0.2,0-0.3-0.1-0.4c-0.1-0.1-0.2-0.2-0.3-0.3c-0.1-0.1-0.4-0.1-0.7-0.1H59.5  L59.5,76.3z M66.3,75.8h0.5v1.9H69v-1.9h0.5v4.5H69v-2.2h-2.3v2.2h-0.5V75.8L66.3,75.8z M76.3,75.7c0.7,0,1.3,0.2,1.7,0.7  c0.5,0.5,0.7,1,0.7,1.7c0,0.7-0.2,1.2-0.7,1.7c-0.5,0.5-1,0.7-1.7,0.7c-0.7,0-1.2-0.2-1.7-0.7c-0.5-0.5-0.7-1-0.7-1.7  c0-0.4,0.1-0.8,0.3-1.2c0.2-0.4,0.5-0.7,0.9-0.9C75.5,75.8,75.9,75.7,76.3,75.7L76.3,75.7z M76.3,76.2c-0.3,0-0.7,0.1-1,0.3  c-0.3,0.2-0.5,0.4-0.7,0.7c-0.2,0.3-0.3,0.6-0.3,1c0,0.5,0.2,1,0.6,1.4c0.4,0.4,0.8,0.6,1.4,0.6c0.4,0,0.7-0.1,1-0.3  c0.3-0.2,0.5-0.4,0.7-0.7c0.2-0.3,0.3-0.6,0.3-1c0-0.4-0.1-0.7-0.3-1c-0.2-0.3-0.4-0.5-0.7-0.7C77,76.2,76.6,76.2,76.3,76.2  L76.3,76.2z M82.7,76.3v-0.4h2.5v0.4h-1v4.1h-0.5v-4.1H82.7L82.7,76.3z M91.5,75.7c0.7,0,1.3,0.2,1.7,0.7c0.5,0.5,0.7,1,0.7,1.7  c0,0.7-0.2,1.2-0.7,1.7c-0.5,0.5-1,0.7-1.7,0.7c-0.7,0-1.2-0.2-1.7-0.7c-0.5-0.5-0.7-1-0.7-1.7c0-0.4,0.1-0.8,0.3-1.2  c0.2-0.4,0.5-0.7,0.9-0.9C90.7,75.8,91.1,75.7,91.5,75.7L91.5,75.7z M91.5,76.2c-0.3,0-0.7,0.1-1,0.3c-0.3,0.2-0.5,0.4-0.7,0.7  c-0.2,0.3-0.3,0.6-0.3,1c0,0.5,0.2,1,0.6,1.4c0.4,0.4,0.8,0.6,1.4,0.6c0.4,0,0.7-0.1,1-0.3c0.3-0.2,0.5-0.4,0.7-0.7  c0.2-0.3,0.3-0.6,0.3-1c0-0.4-0.1-0.7-0.3-1c-0.2-0.3-0.4-0.5-0.7-0.7C92.2,76.2,91.8,76.2,91.5,76.2L91.5,76.2z M102.7,76.6  l-0.4,0.3c-0.3-0.2-0.5-0.4-0.8-0.6c-0.3-0.1-0.6-0.2-0.9-0.2c-0.4,0-0.7,0.1-1,0.3c-0.3,0.2-0.6,0.4-0.8,0.7  c-0.2,0.3-0.3,0.6-0.3,1c0,0.3,0.1,0.7,0.3,1c0.2,0.3,0.4,0.5,0.8,0.7c0.3,0.2,0.7,0.3,1.1,0.3c0.5,0,0.9-0.1,1.2-0.4  c0.3-0.3,0.5-0.6,0.6-1H101v-0.4h2c0,0.7-0.2,1.3-0.6,1.7c-0.4,0.4-1,0.6-1.7,0.6c-0.8,0-1.5-0.3-2-0.9c-0.4-0.4-0.6-1-0.6-1.5  c0-0.4,0.1-0.8,0.3-1.2c0.2-0.4,0.5-0.7,0.9-0.9c0.4-0.2,0.8-0.3,1.3-0.3c0.4,0,0.8,0.1,1.1,0.2C102.1,76.1,102.4,76.3,102.7,76.6  L102.7,76.6z M107.4,75.8h0.9c0.5,0,0.8,0,1,0.1c0.3,0.1,0.5,0.2,0.7,0.4c0.2,0.2,0.3,0.5,0.3,0.7c0,0.2-0.1,0.5-0.2,0.7  c-0.1,0.2-0.3,0.3-0.5,0.4c-0.2,0.1-0.5,0.1-0.9,0.1l1.6,2.1h-0.6l-1.6-2.1h-0.3v2.1h-0.5V75.8L107.4,75.8z M107.8,76.3v1.5l0.8,0  c0.3,0,0.5,0,0.7-0.1c0.1-0.1,0.3-0.1,0.3-0.3c0.1-0.1,0.1-0.3,0.1-0.4c0-0.2,0-0.3-0.1-0.4c-0.1-0.1-0.2-0.2-0.3-0.3  c-0.1-0.1-0.4-0.1-0.7-0.1H107.8L107.8,76.3z M116.6,75.8l2.1,4.5h-0.5l-0.7-1.5h-2l-0.7,1.5h-0.5l2.1-4.5H116.6L116.6,75.8z   M116.5,76.8l-0.8,1.7h1.6L116.5,76.8L116.5,76.8z M122.9,75.8h0.9c0.5,0,0.9,0,1.1,0.1c0.3,0.1,0.5,0.2,0.6,0.4  c0.2,0.2,0.2,0.4,0.2,0.7c0,0.3-0.1,0.6-0.2,0.7c-0.2,0.2-0.4,0.3-0.7,0.4c-0.2,0-0.6,0.1-1.2,0.1h-0.3v2.1h-0.5V75.8L122.9,75.8z   M123.3,76.3v1.5l0.8,0c0.3,0,0.5,0,0.7-0.1c0.1-0.1,0.3-0.1,0.3-0.3c0.1-0.1,0.1-0.3,0.1-0.4c0-0.2,0-0.3-0.1-0.4  c-0.1-0.1-0.2-0.2-0.3-0.3c-0.1-0.1-0.4-0.1-0.7-0.1H123.3L123.3,76.3z M130.1,75.8h0.5v1.9h2.3v-1.9h0.5v4.5h-0.5v-2.2h-2.3v2.2  h-0.5V75.8L130.1,75.8z M137.6,75.8h0.5l1.2,1.9l1.2-1.9h0.5l-1.4,2.4v2.2h-0.5v-2.2L137.6,75.8z"></path>	<g class="st2">		<path class="st3" d="M51.4,36.9c-0.1,0.3-0.2,0.6-0.3,1c-0.9,5.1,2.6,8.1,7.9,7.1c7.3-1.4,13.8-8.2,20.6-11.3l0,0   c0.1,0,0.2,0,0.2-0.1l0,0l0,0c8.8-2.4,4.6,7.9,4.4,10.1c-0.1,1.5,0.5,0.7,0.9-0.2c1.6-3.3,3.4-10.3,5.2-13.2   c2.3-3.6,8.2-3.3,7.2,2.6c-0.7,4.4-4.4,10.5-5,15c-0.3,2.3,0.1,4.7,1.5,4.4c1.7-0.4,3.7-3.1,5.6-6.4l0.5-0.9   c0.7-1.3,1.4-2.8,2.1-4.1l-0.3,2.7c-0.3,0.6-0.6,1.3-1,1.9l-0.4,0.7c-2,3.5-4.2,6.4-6.2,6.9c-1.7,0.4-3-1.9-3-5.5   c0-3,0.6-6.3,0.8-7.2c0.1-0.6,1.4-5.4,1.6-8.6c0.2-2.6-1-3.4-2.9-0.7c-0.8,1-1.5,2.8-2.1,4.7c-0.9,2.8-1.7,6-2.8,7.9   C85.2,45,84,46.1,83.1,44c-2-4.7,2.3-11.3-3-9.7l0,0c-7.2,3.1-13.3,10.1-21.2,11.4c-5.3,0.9-9.6-2.3-8.7-8c0-0.2,0.5-3.3,1.3-3.1   c0.4,0,0.6,0.6,0.5,1.3C51.9,36.3,51.7,36.8,51.4,36.9z"></path>		<path class="st3" d="M103.3,50.7c0.6-3.9,1.8-9.4,2.2-11.9c7-10.1,9-20.2,8.7-25.2c-0.5-6.9-4.3-6-6.6-1.6   c-3.4,6.5-5.4,22.8-5.8,26.2c-0.5,3.7-0.9,7.5-0.8,10.8c-0.1,11.3,3.4,11.5,7.3,8.3c5.1-4.2,17.2-22.1,26.6-28.1   c5.2-3.4,12.9-2.6,13.6,4.3c0,0.5,0.1,0.9,0.1,1.4c-0.3,0.2-0.5,0.8-0.3,1.7c0.2,0.8,0.7,1.5,1.2,1.4c1.1-0.2,0.4-4.2,0.3-4.6   c-1.3-7.5-9.5-8.6-15.2-5c-9.6,6-21.3,23.4-26.6,28.1C104.4,59.7,101.8,59.9,103.3,50.7L103.3,50.7z M105.9,36.7   c0.3-1.6,2.2-16.3,4-23.2c1.1-3.9,3-6.6,3.5,0C113.7,18.3,111.7,28,105.9,36.7z"></path>	</g></g></svg>