<svg xmlns="http://www.w3.org/2000/svg" xmlns:xlink="http://www.w3.org/1999/xlink" x="0px" y="0px" viewBox="0 0 29.3 37.2" style="enable-background:new 0 0 29.3 37.2;" xml:space="preserve"><path d="M4.9,9.8h2.9V6.8c0-1.9,0.8-3.6,2-4.8c1.2-1.3,2.9-2,4.8-2c1.9,0,3.6,0.8,4.8,2c1.2,1.2,2,2.9,2,4.8v2.9h2.9 c0.5,0,0.9,0.4,1,0.9L29.3,36c0.1,0.6-0.3,1-0.8,1.1c0,0-0.1,0-0.1,0H1c-0.6,0-1-0.4-1-1c0,0,0-0.1,0-0.1l3.9-25.4 C4,10.2,4.4,9.8,4.9,9.8L4.9,9.8z M20.5,12.7c1,0,1.9,0.9,1.9,1.9c0,0.7-0.4,1.4-1,1.7v0.2c0,1.9-0.8,3.6-2,4.8 c-1.2,1.2-2.9,2-4.8,2c-1.9,0-3.6-0.8-4.8-2c-1.2-1.2-2-2.9-2-4.8v-0.2c-0.6-0.3-1-1-1-1.7c0-1.1,0.9-1.9,1.9-1.9c1.1,0,2,0.9,2,1.9 c0,0.7-0.4,1.4-1,1.7v0.2c0,1.4,0.6,2.6,1.4,3.5c0.9,0.9,2.1,1.4,3.5,1.4c1.3,0,2.6-0.5,3.5-1.4c0.9-0.9,1.4-2.1,1.4-3.5v-0.2 c-0.6-0.3-1-1-1-1.7C18.6,13.6,19.5,12.7,20.5,12.7L20.5,12.7z M18.1,3.4c-0.9-0.9-2.1-1.5-3.5-1.5c-1.3,0-2.6,0.6-3.5,1.5 c-0.9,0.9-1.4,2.1-1.4,3.4v2.9h9.8V6.8C19.6,5.5,19,4.3,18.1,3.4L18.1,3.4z M23.6,11.7h-3H8.8h-3L2.1,35.2h25.1L23.6,11.7z"></path></svg>