<svg xmlns="http://www.w3.org/2000/svg" xmlns:xlink="http://www.w3.org/1999/xlink" x="0px" y="0px" viewBox="0 0 100 100" style="enable-background:new 0 0 100 100;" xml:space="preserve"><g>	<path d="M78.807,93.256c0,1.897-0.948,3.753-2.474,4.907c-1.072,0.825-2.351,1.237-3.67,1.237c-3.382,0-6.144-2.763-6.144-6.144  c0-0.289,0.083-0.989,0.123-1.279c0.577-2.804,3.093-4.865,6.021-4.865C76.045,87.112,78.807,89.875,78.807,93.256L78.807,93.256z"></path>	<path d="M41.694,93.256c0,1.897-0.948,3.753-2.474,4.907c-1.072,0.825-2.351,1.237-3.67,1.237c-3.382,0-6.144-2.763-6.144-6.144  c0-0.289,0.083-0.989,0.123-1.279c0.577-2.804,3.093-4.865,6.021-4.865C38.932,87.112,41.694,89.875,41.694,93.256L41.694,93.256z"></path>	<path d="M97.115,30.042c-2.227-2.969-5.65-4.701-9.361-4.701l-62.307-0.083l-2.639-15.051C21.737,4.641,16.871,0.6,11.263,0.6  H4.624C2.356,0.6,0.5,2.456,0.5,4.724s1.856,4.124,4.124,4.124h6.639c1.649,0,3.134,1.237,3.422,2.845L25.53,73.424  c1.072,5.567,5.938,9.608,11.546,9.608h37.69c5.237,0,9.773-3.422,11.134-8.207l13.072-34.143  C100.085,36.97,99.425,33.136,97.115,30.042L97.115,30.042z M91.178,38l-1.443,3.753H62.849c-2.268,0-4.124,1.856-4.124,4.124  c0,2.268,1.856,4.124,4.124,4.124h23.752l-3.176,8.247H50.271c-2.309,0-4.124,1.856-4.124,4.124c0,2.268,1.814,4.124,4.124,4.124  h30.02l-2.185,5.69c-0.454,1.526-1.773,2.597-3.34,2.597h-37.69c-1.691,0-3.134-1.237-3.422-2.887l-6.762-38.39l60.864,0.083  c1.485,0,2.351,0.866,2.763,1.402C91.219,35.939,91.425,37.176,91.178,38L91.178,38z"></path></g></svg>