<svg xmlns="http://www.w3.org/2000/svg" xmlns:xlink="http://www.w3.org/1999/xlink" x="0px" y="0px" viewBox="0 0 100 100" style="enable-background:new 0 0 100 100;" xml:space="preserve"><path d="M76.469,50.715c-0.158,1.099-0.659,2.118-1.43,2.915L32.802,97.626c-0.938,1.111-2.293,1.786-3.744,1.866 c-1.452,0.08-2.872-0.442-3.927-1.444c-1.054-1-1.649-2.393-1.644-3.846c0.005-1.455,0.609-2.842,1.671-3.836L63.931,50 L25.158,9.634c-1.062-0.994-1.666-2.381-1.671-3.836c-0.005-1.453,0.589-2.846,1.644-3.846c1.054-1.002,2.475-1.523,3.927-1.444 c1.451,0.08,2.806,0.755,3.744,1.866L75.039,46.37c1.111,1.156,1.638,2.755,1.429,4.344L76.469,50.715z"></path></svg>