<svg xmlns="http://www.w3.org/2000/svg" xmlns:xlink="http://www.w3.org/1999/xlink" x="0px" y="0px" viewBox="0 0 32 33" style="enable-background:new 0 0 32 33;" xml:space="preserve"><g>	<path d="M22.1,1.5H9.9c-4.7,0-8.5,3.8-8.5,8.5v13c0,4.7,3.8,8.5,8.5,8.5h12.2c4.7,0,8.5-3.8,8.5-8.5V10C30.6,5.3,26.8,1.5,22.1,1.5  z M28.4,23c0,1.7-0.7,3.2-1.8,4.4c-1.2,1.2-2.8,1.8-4.4,1.8H9.9c-1.7,0-3.2-0.7-4.4-1.8c-1.2-1.2-1.8-2.8-1.8-4.4V10  c0-1.7,0.7-3.2,1.8-4.4c1.2-1.2,2.8-1.8,4.4-1.8h12.2c1.7,0,3.2,0.7,4.4,1.8c1.2,1.2,1.8,2.8,1.8,4.4V23z"></path>	<path d="M16,8.3c-4.4,0-8,3.6-8,8s3.6,8,8,8s8-3.6,8-8S20.5,8.3,16,8.3z M16,21.7c-2.9,0-5.3-2.4-5.3-5.3c0-2.9,2.4-5.3,5.3-5.3  c2.9,0,5.3,2.4,5.3,5.3C21.3,19.3,18.9,21.7,16,21.7z"></path>	<path d="M24.2,6.3c-1.1,0-1.9,0.9-1.9,1.9c0,1.1,0.9,1.9,1.9,1.9s1.9-0.9,1.9-1.9C26.1,7.2,25.3,6.3,24.2,6.3z"></path></g></svg>