<svg xmlns="http://www.w3.org/2000/svg" xmlns:xlink="http://www.w3.org/1999/xlink" x="0px" y="0px" viewBox="0 0 500 500" style="enable-background:new 0 0 500 500;" xml:space="preserve"><g>	<path d="M487.492,104.978c-5.754-14.234-13.16-27.593-25.007-38.053c-10.207-9.012-21.372-16.273-34.587-19.645  c-6.457-1.648-13.276-2.309-19.96-2.525c-8.192-0.265-16.625-0.656-24.57,0.93c-10.384,2.073-20.199,6.019-28.806,13.028  c-10.471,8.527-18.93,18.408-24.753,30.474c-3.974,8.236-7.804,16.594-10.887,25.189c-2.334,6.508-4.072,13.399-4.838,20.257  c-0.964,8.632-0.664,17.404-0.916,26.116c-0.425,14.71,2.12,28.838,7.618,42.534c4.347,10.829,10.241,20.648,18.473,28.808  c5.302,5.256,11.367,9.799,17.396,14.246c4.323,3.188,8.923,6.207,13.81,8.379c7.987,3.55,16.214,6.631,24.516,9.377  c6.659,2.202,12.317,5.776,17.192,10.606c8.659,8.578,13.341,18.656,10.648,31.148c-1.659,7.696-3.23,15.421-5.249,23.025  c-1.657,6.241-3.379,12.565-6.031,18.417c-4.349,9.596-9.094,19.06-14.376,28.172c-5.812,10.028-12.213,19.735-18.741,29.321  c-5.685,8.347-11.953,16.294-17.868,24.487c-3.054,4.23-2.716,5.572,1.569,8.644c0.655,0.47,1.199,1.092,1.8,1.639  c6.26,5.694,12.76,11.153,18.674,17.186c2.702,2.757,7.226,4.278,7.448,9.124c0.931,0,1.862,0,2.792,0  c0.231-1.211,0.097-2.683,0.748-3.595c9.639-13.507,19.633-26.768,29.014-40.45c6.289-9.171,11.852-18.85,17.534-28.424  c3.961-6.675,7.752-13.465,11.29-20.373c3.217-6.281,6.079-12.75,8.933-19.209c3.603-8.154,7.309-16.278,10.475-24.604  c3.457-9.089,6.509-18.343,9.434-27.62c2.437-7.728,4.649-15.543,6.586-23.411c4.973-20.206,8.95-40.588,10.24-61.422  c0.066-1.069-0.041-2.302,0.15-3.407l0.257-66.511C496.138,132.402,492.893,118.337,487.492,104.978z"></path>	<path d="M183.58,299.128c-2.105-6.79-5.315-13.287-8.518-19.673c-3.838-7.65-9.303-14.161-16.091-19.395  c-5.103-3.935-10.345-7.732-15.799-11.155c-4.558-2.862-9.379-5.404-14.325-7.523c-5.619-2.407-11.565-4.038-17.255-6.292  c-3.514-1.392-6.985-3.053-10.171-5.072c-3.405-2.158-6.577-4.736-9.631-7.384c-7.789-6.753-12.489-14.976-12.574-25.664  c-0.126-15.76,4.352-30.55,9.934-44.893c4.311-11.079,10.061-21.65,15.764-32.125c10.57-19.414,24.101-36.883,36.971-54.773  c2.193-3.048,2.257-4.281-0.581-6.775c-4.867-4.276-9.78-8.499-14.674-12.745c-3.592-3.116-7.162-6.259-10.782-9.343  c-3.766-3.208-6.089-2.893-8.665,1.06c-0.507,0.777-1.113,1.489-1.652,2.246c-10.16,14.269-20.57,28.368-30.377,42.875  c-5.765,8.529-10.634,17.67-15.784,26.607c-3.645,6.326-7.423,12.61-10.542,19.196c-5.591,11.805-10.733,23.825-15.998,35.783  c-1.39,3.158-2.642,6.375-3.747,9.644c-2.196,6.496-4.298,13.028-6.249,19.602c-2.373,7.999-4.701,16.018-6.768,24.1  c-1.78,6.96-3.393,13.979-4.674,21.045c-2.194,12.104-4.306,24.232-6.002,36.413c-1.284,9.224-1.787,18.502-2.819,27.765  c-0.004,0.211-0.022,0.418-0.032,0.627l-0.021,0.663c0.004,6.559,0.052,22.54,0.649,28.4c0.001,0.01,0.006,0.02,0.007,0.031  c0.318,2.643,0.514,5.292,0.784,7.943c0.717,7.041,1.011,14.168,2.34,21.094c1.459,7.602,3.457,15.169,6.007,22.477  c2.848,8.163,5.815,16.455,10.085,23.916c9.339,16.32,22.377,29.189,39.533,37.364c4.775,2.275,9.857,4.594,15.007,5.249  c9.993,1.271,20.128,1.69,30.216,1.896c16.75,0.342,31.165-6.189,43.88-16.548c10.334-8.419,17.635-19.4,23.457-31.212  c6.903-14.003,11.875-28.728,13.828-44.327c0.733-5.855,1.82-11.72,1.876-17.589c0.063-6.587-0.438-13.249-1.456-19.758  C187.478,314.881,185.971,306.842,183.58,299.128z"></path>	<path d="M2.517,302.826L2.5,302.917l0.017,0.006C2.517,302.892,2.517,302.857,2.517,302.826z"></path>	<path d="M2.538,303.282l0.011-0.348l-0.032-0.011c0,0.238,0,0.5,0,0.778C2.526,303.561,2.532,303.421,2.538,303.282z"></path>	<path d="M2.517,303.7c0,0.081,0,0.16,0,0.244l0.021-0.663C2.532,303.421,2.526,303.561,2.517,303.7z"></path></g></svg>