<svg xmlns="http://www.w3.org/2000/svg" xmlns:xlink="http://www.w3.org/1999/xlink" x="0px" y="0px" viewBox="0 0 100 100" style="enable-background:new 0 0 100 100;" xml:space="preserve"><path class="st0" d="M96.5,84.2l-21-21c4.1-6.5,6.3-14.1,6.3-21.8c0-10.3-3.8-20.7-11.7-28.6S51.6,1.2,41.5,1.2 c-10.6-0.3-21,3.5-28.8,11.7C4.8,20.8,1,31.1,1,41.4S4.8,62.1,12.7,70s18.2,11.7,28.6,11.7c7.6,0,15-2.2,21.8-6.3l21,21 c1.6,1.6,4.1,2.4,6.3,2.4s4.6-0.8,6.3-2.4c1.6-1.6,2.4-4.1,2.4-6.3C99.2,88.2,98.1,85.8,96.5,84.2z M66.3,66.5L66.3,66.5L66.3,66.5 L66,66.7c-6.8,6.8-15.8,10.1-24.8,10.1s-18.2-3.3-25-10.3c-6.8-7.1-10.3-16.1-10.3-25s3.3-18.2,10.3-25s16.1-10.3,25-10.3 s18.2,3.3,25,10.3c6.8,6.8,10.3,16.1,10.3,25C76.6,50.4,73.4,59.1,66.3,66.5L66.3,66.5z M92.7,92.9c-0.5,0.8-1.6,1.1-2.4,1.1 c-1.1,0-1.9-0.3-2.7-1.1L67.4,72.7c0.8-0.5,1.4-1.4,2.2-1.9l0,0l0,0l0,0l0,0l0,0l0,0l0.3-0.3l0.5-0.5l0,0l0,0l0,0l0,0l0,0l0,0 c0.5-0.8,1.4-1.4,1.9-2.2l20.1,20.4c0.8,0.8,1.1,1.6,1.1,2.7C94.1,91.2,93.5,92.3,92.7,92.9z"></path></svg>