<svg xmlns="http://www.w3.org/2000/svg" xmlns:xlink="http://www.w3.org/1999/xlink" x="0px" y="0px" viewBox="0 0 50 45" style="enable-background:new 0 0 50 45;" xml:space="preserve"><path d="M19.8,2.2l0.6,2.2L20,4.5l-0.6-2.2L19.8,2.2z M14.6,7c-0.2,0-0.4,0-0.6-0.1c-0.2-0.1-0.3-0.2-0.5-0.4 c-0.1-0.2-0.2-0.4-0.2-0.6c0-0.2,0-0.4,0.1-0.6C13.6,5.1,13.8,5,14,4.9c0.2-0.1,0.4-0.2,0.6-0.2c0.2,0,0.4,0,0.6,0.1 c0.2,0.1,0.3,0.2,0.5,0.4c0.1,0.2,0.2,0.4,0.2,0.6c0,0.2,0,0.4-0.1,0.6c-0.1,0.2-0.3,0.3-0.5,0.5C15,6.9,14.8,7,14.6,7z M14.2,6.5 c0.1,0.1,0.3,0.1,0.4,0.1c0.1,0,0.3-0.1,0.4-0.1c0.1-0.1,0.2-0.2,0.3-0.3c0.1-0.1,0.1-0.3,0.1-0.4c0-0.1-0.1-0.3-0.1-0.4 c-0.1-0.1-0.2-0.2-0.3-0.3C14.8,5,14.7,5,14.6,5c-0.1,0-0.3,0.1-0.4,0.1c-0.1,0.1-0.2,0.2-0.3,0.3c-0.1,0.1-0.1,0.3-0.1,0.4 c0,0.1,0.1,0.3,0.1,0.4C14,6.4,14.1,6.5,14.2,6.5z M8.5,13.1c0.1,0.2,0.1,0.4,0,0.7c-0.1,0.1-0.2,0.2-0.3,0.3 c-0.1,0.1-0.2,0.1-0.4,0.1c-0.1,0-0.3,0-0.4-0.1C7.3,14,7.2,14,7.1,13.8C7,13.7,7,13.6,7,13.5c0-0.1,0-0.3,0.1-0.4 c0.1-0.2,0.3-0.4,0.5-0.4l-0.1-0.4c-0.2,0-0.3,0.1-0.4,0.2c-0.1,0.1-0.2,0.2-0.3,0.4c-0.1,0.2-0.1,0.4-0.1,0.6 c0,0.2,0.1,0.4,0.2,0.6c0.1,0.2,0.3,0.3,0.5,0.4c0.2,0.1,0.4,0.1,0.6,0.1c0.2,0,0.4-0.1,0.6-0.2c0.2-0.1,0.3-0.3,0.4-0.5 c0.1-0.2,0.1-0.3,0.1-0.5c0-0.2,0-0.3-0.1-0.5L8.5,13.1z M11.9,9.5l-1.6-1.6L11,7.2C11.2,7.1,11.3,7,11.5,7c0.1-0.1,0.3-0.1,0.4,0 C12,7,12.1,7,12.3,7.2c0.1,0.1,0.2,0.2,0.2,0.4c0,0.2,0,0.3-0.1,0.4l0.9,0.2L13,8.5l-0.8-0.1c0,0,0,0-0.1,0.1l-0.4,0.4l0.5,0.5 L11.9,9.5z M11.5,8.5l0.3-0.3C12,8,12.1,7.9,12.1,7.8c0-0.1,0-0.2-0.1-0.3c-0.1-0.1-0.2-0.2-0.3-0.1c-0.1,0-0.2,0.1-0.4,0.2 l-0.3,0.3L11.5,8.5z M39.8,10.2L40,10l-0.9-0.9l0.4-0.4l0.8,0.8l0.2-0.2l-0.8-0.8L40.3,8l0.8,0.9l0.3-0.2l-1.1-1.2L38.6,9L39.8,10.2 z M9.7,12.3l-1.3-2.1l0.2-0.3l2.4,0.5l-0.3,0.4l-0.6-0.1l-0.6,0.9L9.9,12L9.7,12.3z M9.4,11.2l0.5-0.7l-1.1-0.2L9.4,11.2z M18.7,4.5 L17.7,5l-0.8-1.7l-0.4,0.2l0.9,2l1.4-0.7L18.7,4.5z M36.5,7.2L36.2,7l1.4-1.8l0.7,0.6c0.2,0.1,0.3,0.3,0.3,0.4 c0.1,0.1,0.1,0.3,0.1,0.4c0,0.1-0.1,0.3-0.2,0.4c-0.1,0.1-0.2,0.2-0.3,0.3c-0.1,0-0.3,0.1-0.4,0c-0.2,0-0.3-0.1-0.5-0.2l-0.4-0.3 L36.5,7.2z M37.1,6.4l0.4,0.3c0.1,0.1,0.3,0.2,0.4,0.2c0.1,0,0.2-0.1,0.3-0.2c0.1-0.1,0.1-0.2,0.1-0.3c0-0.1-0.1-0.2-0.3-0.3 l-0.4-0.3L37.1,6.4z M23.5,3.8l0.3,0l-0.3-2.2l-0.4,0.1l0.2,1.5l-1.4-1.4l-0.4,0L21.9,4l0.4,0l-0.2-1.5L23.5,3.8z M35.5,4.1 c0.1,0.2,0.2,0.4,0.2,0.6c0,0.2,0,0.4-0.1,0.6c-0.1,0.2-0.2,0.3-0.4,0.5c-0.2,0.1-0.4,0.2-0.6,0.2c-0.2,0-0.4,0-0.6-0.1 c-0.2-0.1-0.4-0.2-0.5-0.4c-0.1-0.2-0.2-0.4-0.2-0.6c0-0.2,0-0.4,0.1-0.6c0.1-0.2,0.2-0.3,0.4-0.5c0.2-0.1,0.4-0.2,0.6-0.2 c0.2,0,0.4,0,0.6,0.1C35.2,3.8,35.4,3.9,35.5,4.1z M35.3,4.7c0-0.1-0.1-0.3-0.1-0.4C35.1,4.2,35,4.1,34.8,4 c-0.1-0.1-0.3-0.1-0.4-0.1C34.3,3.9,34.1,4,34,4c-0.1,0.1-0.2,0.2-0.3,0.3c-0.1,0.1-0.1,0.3-0.1,0.4c0,0.1,0.1,0.3,0.1,0.4 c0.1,0.1,0.2,0.2,0.3,0.3c0.1,0.1,0.3,0.1,0.4,0.1c0.1,0,0.3,0,0.4-0.1c0.1-0.1,0.2-0.2,0.3-0.3C35.2,4.9,35.3,4.8,35.3,4.7z  M31.4,2.3L31,2.2l-0.6,2.2l1.5,0.4L32,4.4l-1.1-0.3L31.4,2.3z M27.1,3.4l-1.3,0l0-0.6l1.1,0l0-0.3l-1.1,0l0-0.6l1.2,0l0-0.3l-1.7,0 l0,2.3l1.7,0L27.1,3.4z M43.4,11.4l-1.1-1.5l-0.3,0.2l0.8,1.1L40.7,11l-0.2,0.2l1.1,1.5l0.3-0.2l-0.8-1.1l2.1,0.1L43.4,11.4z  M36.6,37.7l2.1,1.2l-0.4,0.3l-0.5-0.3L37,39.5l0.1,0.5l-0.3,0.3l-0.5-2.4L36.6,37.7z M36.7,38.2l0.2,1l0.7-0.5L36.7,38.2z  M39.5,35.1l1.1,1.1l-2-0.2l-0.2,0.2l1.6,1.6l0.3-0.3l-1.1-1.1l2,0.2l0.2-0.2l-1.6-1.6L39.5,35.1z M34.6,40.2l0.3,0.6 c-0.1,0.1-0.2,0.2-0.4,0.3c-0.1,0.1-0.3,0.1-0.4,0.1c-0.1,0-0.3-0.1-0.4-0.1c-0.1-0.1-0.2-0.2-0.3-0.3c-0.1-0.1-0.1-0.3-0.1-0.4 c0-0.1,0.1-0.3,0.1-0.4c0.1-0.1,0.2-0.2,0.3-0.3c0.2-0.1,0.5-0.1,0.7,0l0.1-0.3c-0.1-0.1-0.3-0.1-0.5-0.1c-0.2,0-0.3,0-0.5,0.1 c-0.2,0.1-0.4,0.2-0.5,0.4C33.1,40,33,40.2,33,40.4c0,0.2,0,0.4,0.1,0.6c0.1,0.2,0.2,0.4,0.4,0.5c0.2,0.1,0.4,0.2,0.6,0.2 c0.2,0,0.4,0,0.6-0.1c0.1-0.1,0.3-0.1,0.4-0.3c0.1-0.1,0.2-0.2,0.3-0.4L35,40.1L34.6,40.2z M31.8,41.6c0,0.2,0,0.4,0,0.6 c-0.1,0.2-0.2,0.4-0.3,0.5c-0.1,0.1-0.3,0.2-0.6,0.3c-0.2,0.1-0.4,0.1-0.6,0c-0.2-0.1-0.4-0.2-0.5-0.3c-0.2-0.2-0.2-0.3-0.3-0.5 c-0.1-0.2,0-0.4,0-0.6c0.1-0.2,0.2-0.4,0.3-0.5c0.1-0.1,0.3-0.2,0.6-0.3c0.2,0,0.4,0,0.6,0c0.2,0.1,0.4,0.2,0.5,0.3 C31.6,41.1,31.7,41.3,31.8,41.6z M31.4,41.6c0-0.1-0.1-0.3-0.2-0.4c-0.1-0.1-0.2-0.2-0.3-0.2c-0.1,0-0.3,0-0.4,0 c-0.1,0-0.3,0.1-0.4,0.2c-0.1,0.1-0.2,0.2-0.2,0.3c0,0.1,0,0.3,0,0.4c0,0.1,0.1,0.3,0.2,0.4c0.1,0.1,0.2,0.2,0.3,0.2 c0.1,0,0.3,0,0.4,0c0.1,0,0.3-0.1,0.4-0.2c0.1-0.1,0.2-0.2,0.2-0.3C31.4,41.9,31.4,41.8,31.4,41.6z M11.4,35l-1.3,0.2l0.5-1.2 l-0.3-0.3l-0.6,1.6l-0.6,0.5L9.3,36l0.6-0.5l1.7-0.2L11.4,35z M23.8,41.7c0.1,0,0.2-0.1,0.4-0.1c0.1,0,0.2,0,0.3,0.1 c0.1,0,0.2,0.1,0.3,0.2l0.1-0.3c-0.1-0.1-0.2-0.1-0.3-0.2c-0.1-0.1-0.3-0.1-0.4-0.1c-0.2,0-0.4,0-0.5,0c-0.1,0.1-0.2,0.1-0.3,0.2 c-0.1,0.1-0.1,0.2-0.1,0.3c0,0.1,0,0.3,0.1,0.4c0.1,0.1,0.2,0.2,0.3,0.2c0.1,0.1,0.2,0.1,0.4,0.1c0.1,0,0.2,0.1,0.3,0.1 c0.1,0,0.1,0.1,0.2,0.1c0,0,0.1,0.1,0.1,0.2c0,0.1-0.1,0.2-0.2,0.2c-0.1,0-0.2,0.1-0.4,0c-0.1,0-0.3,0-0.4-0.1 c-0.1-0.1-0.2-0.1-0.3-0.2l-0.2,0.3c0.1,0.1,0.2,0.2,0.4,0.2c0.2,0.1,0.3,0.1,0.5,0.1c0.2,0,0.4,0,0.5-0.1c0.1,0,0.2-0.1,0.3-0.2 c0.1-0.1,0.1-0.2,0.1-0.3c0-0.1,0-0.3-0.1-0.4c-0.1-0.1-0.2-0.2-0.3-0.2c-0.1-0.1-0.2-0.1-0.4-0.1c-0.1-0.1-0.2-0.1-0.3-0.1 c-0.1,0-0.1-0.1-0.2-0.1c0,0-0.1-0.1-0.1-0.2C23.7,41.8,23.7,41.7,23.8,41.7z M19.8,40.9c0,0.1,0,0.3,0,0.4 c-0.1,0.2-0.1,0.3-0.3,0.4c-0.1,0.1-0.2,0.1-0.4,0.1l0.3,0.9L19,42.6l-0.2-0.8c0,0,0,0-0.1,0l-0.5-0.1L18,42.2l-0.4-0.1l0.7-2.1 l0.9,0.3c0.2,0.1,0.3,0.1,0.5,0.2C19.7,40.6,19.8,40.7,19.8,40.9z M19.4,40.8c-0.1-0.1-0.2-0.2-0.4-0.2l-0.5-0.1l-0.3,0.8l0.5,0.1 c0.2,0.1,0.3,0.1,0.4,0c0.1,0,0.2-0.1,0.2-0.3C19.4,41,19.4,40.9,19.4,40.8z M15.9,40.2c-0.2,0.4-0.5,0.5-0.8,0.3 c-0.3-0.2-0.4-0.5-0.2-0.9l0.6-1.1l-0.4-0.2l-0.6,1.1c-0.2,0.3-0.2,0.5-0.1,0.8c0.1,0.2,0.2,0.4,0.5,0.6c0.3,0.2,0.5,0.2,0.8,0.1 c0.2-0.1,0.4-0.3,0.6-0.5l0.6-1.1l-0.4-0.2L15.9,40.2z M27,43.2l-0.1-1.9l-0.4,0l0.2,2.2l1.6-0.1l0-0.4L27,43.2z M13.6,37.2 c0.1,0.2,0.1,0.4,0.1,0.6c0,0.2-0.1,0.4-0.3,0.6c-0.2,0.2-0.3,0.3-0.5,0.3c-0.2,0.1-0.4,0.1-0.6,0c-0.2,0-0.4-0.1-0.6-0.3 c-0.2-0.2-0.3-0.3-0.4-0.5c-0.1-0.2-0.1-0.4-0.1-0.6c0-0.2,0.1-0.4,0.3-0.6c0.2-0.2,0.3-0.3,0.5-0.3c0.2-0.1,0.4-0.1,0.6,0 c0.2,0,0.4,0.1,0.6,0.3C13.4,36.9,13.5,37,13.6,37.2z M13.2,37.3c0-0.1-0.1-0.2-0.2-0.3c-0.1-0.1-0.2-0.2-0.4-0.2 c-0.1,0-0.3,0-0.4,0c-0.1,0.1-0.2,0.1-0.3,0.2c-0.1,0.1-0.2,0.2-0.2,0.4c0,0.1,0,0.3,0,0.4c0,0.1,0.1,0.2,0.2,0.3 c0.1,0.1,0.2,0.2,0.4,0.2c0.1,0,0.3,0,0.4,0c0.1-0.1,0.2-0.1,0.3-0.3c0.1-0.1,0.2-0.2,0.2-0.4C13.3,37.6,13.3,37.5,13.2,37.3z"></path><path d="M48.8,23.9c-0.2-0.1-0.4,0-0.5,0.1c-1.2,1.5-3.8,3.7-9.7,1.8c-6.2-2.1-8.6-1.7-10.9,3.1c-0.6,1.2-0.9,2.4-1.6,2.4 c-0.6,0-0.9-5.5-0.7-8.4c2.2-1.1,4-6,4-8.1c0-1.2-0.6-2.4-1.7-2.4c-3.3,0.2-4.5,6.8-4.4,12.4c-0.8,1.9-2,4.2-2.8,4.2 c-1.6,0.1-0.4-6.4,0.5-6.5c0.3,0,0.5,0.8,0.4,1.5c0,0.2,0.1,0.4,0.3,0.4c0.2,0,0.4-0.1,0.4-0.3c0.3-1.2-0.4-2.7-1.7-2.7 c-0.8,0-1.4,0.7-1.8,1.7c-1.6,2.1-2.1,1.6-6.8-0.1c-3.7-1.3-8.4-1.3-10.6,2c-0.1,0.2,0,0.4,0.1,0.4c0.2,0.1,0.4,0,0.5-0.1 c1.2-1.5,3.9-3.9,9.7-1.8c5.1,1.9,5.4,1.9,6.8,0.8c-0.6,2.5-0.1,5.7,1.9,5.6c1.2-0.1,2.5-1.7,3.5-3.7c0.2,3.5,1,6.3,2,6.2 c1.8-0.1,2.2-1.8,3.1-3.6c1.9-4,3.5-4.8,9.8-2.7c3.7,1.2,8.4,1.3,10.6-2C49.1,24.2,49,24,48.8,23.9z M28.3,13.5 c0.5-0.1,0.5,0.6,0.5,1.3c0,1.7-1.5,6.3-3.2,7.3C25.8,20.1,27,13.8,28.3,13.5z"></path></svg>