<svg xmlns="http://www.w3.org/2000/svg" xmlns:xlink="http://www.w3.org/1999/xlink" x="0px" y="0px" viewBox="0 0 50 35" style="enable-background:new 0 0 50 35;" xml:space="preserve"><g>	<path d="M0.8,28.6v-4.2h0.1l2.8,3.2v-3.2h0.4v4.2H4l-2.7-3.2v3.2H0.8L0.8,28.6z M7.8,24.5l1.9,4.2H9.3l-0.6-1.4H6.9  l-0.6,1.4H5.8l2-4.2H7.8L7.8,24.5z M7.8,25.3l-0.7,1.5h1.4L7.8,25.3L7.8,25.3z M13.4,24.4c0.6,0,1.2,0.2,1.6,0.6  c0.4,0.4,0.6,0.9,0.6,1.6c0,0.6-0.2,1.1-0.6,1.5c-0.4,0.4-0.9,0.6-1.5,0.6c-0.6,0-1.1-0.2-1.6-0.6c-0.4-0.4-0.6-0.9-0.6-1.5  c0-0.4,0.1-0.8,0.3-1.1c0.2-0.3,0.5-0.6,0.8-0.8C12.7,24.5,13,24.4,13.4,24.4L13.4,24.4z M13.5,24.8c-0.3,0-0.6,0.1-0.9,0.2  c-0.3,0.2-0.5,0.4-0.6,0.6c-0.2,0.3-0.2,0.6-0.2,0.9c0,0.5,0.2,0.9,0.5,1.3c0.3,0.3,0.8,0.5,1.2,0.5c0.3,0,0.6-0.1,0.9-0.2  c0.3-0.2,0.5-0.4,0.6-0.6c0.2-0.3,0.2-0.6,0.2-0.9c0-0.3-0.1-0.6-0.2-0.9c-0.2-0.3-0.4-0.5-0.6-0.6C14.1,24.8,13.8,24.8,13.5,24.8  L13.5,24.8z M17.4,28.6l0.6-4.2H18l1.7,3.4l1.7-3.4h0.1l0.6,4.2h-0.4l-0.4-3l-1.5,3h-0.1l-1.5-3l-0.4,3H17.4L17.4,28.6z M23.8,24.5  h0.4v4.2h-0.4V24.5L23.8,24.5z M28.9,24.5h0.4v3.8h1.6v0.4h-2V24.5L28.9,24.5z M32.6,24.5H33V27c0,0.3,0,0.5,0,0.6  c0,0.2,0.1,0.3,0.1,0.4c0.1,0.1,0.2,0.2,0.3,0.3c0.2,0.1,0.3,0.1,0.5,0.1c0.1,0,0.3,0,0.4-0.1c0.1-0.1,0.2-0.1,0.3-0.2  c0.1-0.1,0.1-0.2,0.2-0.4c0-0.1,0-0.3,0-0.7v-2.5h0.4V27c0,0.4,0,0.7-0.1,0.9c-0.1,0.2-0.2,0.4-0.4,0.6c-0.2,0.2-0.5,0.3-0.8,0.3  c-0.3,0-0.6-0.1-0.9-0.2c-0.2-0.2-0.4-0.4-0.5-0.6c-0.1-0.2-0.1-0.5-0.1-0.9V24.5L32.6,24.5z M41.3,25.2L41,25.5  c-0.2-0.2-0.4-0.4-0.7-0.5c-0.3-0.1-0.5-0.2-0.8-0.2c-0.3,0-0.6,0.1-0.9,0.2c-0.3,0.2-0.5,0.4-0.7,0.6c-0.2,0.3-0.2,0.6-0.2,0.9  c0,0.5,0.2,0.9,0.5,1.3c0.3,0.3,0.8,0.5,1.3,0.5c0.6,0,1.1-0.2,1.5-0.7l0.3,0.2c-0.2,0.3-0.5,0.5-0.8,0.6c-0.3,0.1-0.7,0.2-1,0.2  c-0.7,0-1.3-0.2-1.7-0.7c-0.4-0.4-0.5-0.9-0.5-1.5c0-0.6,0.2-1.1,0.6-1.5c0.4-0.4,1-0.6,1.6-0.6c0.4,0,0.7,0.1,1.1,0.2  C40.9,24.7,41.1,25,41.3,25.2L41.3,25.2z M43.1,24.5h0.4v4.2h-0.4V24.5L43.1,24.5z M47.3,24.5l1.9,4.2h-0.4l-0.6-1.4h-1.8l-0.6,1.4  h-0.5l2-4.2H47.3L47.3,24.5z M47.2,25.3l-0.7,1.5h1.4L47.2,25.3z"></path>	<path d="M7.3,31h0.4c0.2,0,0.4,0,0.5,0c0.1,0,0.2,0.1,0.3,0.2c0.1,0.1,0.1,0.2,0.1,0.3c0,0.1,0,0.2-0.1,0.3  C8.4,31.9,8.3,32,8.2,32c-0.1,0-0.3,0-0.5,0H7.5V33H7.3V31L7.3,31z M7.5,31.2v0.7l0.3,0c0.1,0,0.2,0,0.3,0c0.1,0,0.1-0.1,0.1-0.1  c0-0.1,0.1-0.1,0.1-0.2c0-0.1,0-0.1-0.1-0.2c0-0.1-0.1-0.1-0.1-0.1c-0.1,0-0.2,0-0.3,0H7.5L7.5,31.2z M10.4,31h0.2v0.8h1V31h0.2v2  h-0.2V32h-1V33h-0.2V31L10.4,31z M14.8,30.9c0.3,0,0.5,0.1,0.7,0.3c0.2,0.2,0.3,0.4,0.3,0.7c0,0.3-0.1,0.5-0.3,0.7  c-0.2,0.2-0.4,0.3-0.7,0.3c-0.3,0-0.5-0.1-0.7-0.3c-0.2-0.2-0.3-0.4-0.3-0.7c0-0.2,0-0.4,0.1-0.5c0.1-0.2,0.2-0.3,0.4-0.4  C14.4,31,14.6,30.9,14.8,30.9L14.8,30.9z M14.8,31.1c-0.1,0-0.3,0-0.4,0.1c-0.1,0.1-0.2,0.2-0.3,0.3c-0.1,0.1-0.1,0.3-0.1,0.4  c0,0.2,0.1,0.4,0.2,0.6c0.2,0.2,0.4,0.2,0.6,0.2c0.2,0,0.3,0,0.4-0.1c0.1-0.1,0.2-0.2,0.3-0.3c0.1-0.1,0.1-0.3,0.1-0.4  c0-0.2,0-0.3-0.1-0.4c-0.1-0.1-0.2-0.2-0.3-0.3C15.1,31.2,14.9,31.1,14.8,31.1L14.8,31.1z M17.5,31.2V31h1.1v0.2h-0.4V33H18v-1.8  H17.5L17.5,31.2z M21.3,30.9c0.3,0,0.5,0.1,0.7,0.3c0.2,0.2,0.3,0.4,0.3,0.7c0,0.3-0.1,0.5-0.3,0.7c-0.2,0.2-0.4,0.3-0.7,0.3  c-0.3,0-0.5-0.1-0.7-0.3c-0.2-0.2-0.3-0.4-0.3-0.7c0-0.2,0-0.4,0.1-0.5c0.1-0.2,0.2-0.3,0.4-0.4C21,31,21.1,30.9,21.3,30.9  L21.3,30.9z M21.3,31.1c-0.1,0-0.3,0-0.4,0.1c-0.1,0.1-0.2,0.2-0.3,0.3c-0.1,0.1-0.1,0.3-0.1,0.4c0,0.2,0.1,0.4,0.2,0.6  c0.2,0.2,0.4,0.2,0.6,0.2c0.2,0,0.3,0,0.4-0.1c0.1-0.1,0.2-0.2,0.3-0.3c0.1-0.1,0.1-0.3,0.1-0.4c0-0.2,0-0.3-0.1-0.4  c-0.1-0.1-0.2-0.2-0.3-0.3C21.6,31.2,21.5,31.1,21.3,31.1L21.3,31.1z M26.2,31.3L26,31.5c-0.1-0.1-0.2-0.2-0.4-0.2  c-0.1-0.1-0.3-0.1-0.4-0.1c-0.2,0-0.3,0-0.4,0.1c-0.1,0.1-0.2,0.2-0.3,0.3c-0.1,0.1-0.1,0.3-0.1,0.4c0,0.1,0,0.3,0.1,0.4  c0.1,0.1,0.2,0.2,0.3,0.3c0.1,0.1,0.3,0.1,0.5,0.1c0.2,0,0.4-0.1,0.5-0.2c0.1-0.1,0.2-0.3,0.2-0.4h-0.6V32h0.8  c0,0.3-0.1,0.5-0.3,0.7c-0.2,0.2-0.4,0.3-0.7,0.3c-0.4,0-0.7-0.1-0.9-0.4c-0.2-0.2-0.2-0.4-0.2-0.7c0-0.2,0-0.4,0.1-0.5  c0.1-0.2,0.2-0.3,0.4-0.4c0.2-0.1,0.3-0.1,0.6-0.1c0.2,0,0.3,0,0.5,0.1C25.9,31.1,26,31.2,26.2,31.3L26.2,31.3z M28.2,31h0.4  c0.2,0,0.4,0,0.4,0c0.1,0,0.2,0.1,0.3,0.2c0.1,0.1,0.1,0.2,0.1,0.3c0,0.1,0,0.2-0.1,0.3c-0.1,0.1-0.1,0.1-0.2,0.2  C29,32,28.9,32,28.7,32l0.7,0.9h-0.2L28.5,32h-0.1V33h-0.2V31L28.2,31z M28.4,31.2v0.7l0.3,0c0.1,0,0.2,0,0.3,0  c0.1,0,0.1-0.1,0.1-0.1c0-0.1,0.1-0.1,0.1-0.2c0-0.1,0-0.1-0.1-0.2c0-0.1-0.1-0.1-0.1-0.1c-0.1,0-0.2,0-0.3,0H28.4L28.4,31.2z   M32.1,31l0.9,2h-0.2l-0.3-0.6h-0.9L31.4,33h-0.2L32.1,31L32.1,31L32.1,31z M32.1,31.4l-0.3,0.7h0.7L32.1,31.4L32.1,31.4z M34.9,31  h0.4c0.2,0,0.4,0,0.5,0c0.1,0,0.2,0.1,0.3,0.2c0.1,0.1,0.1,0.2,0.1,0.3c0,0.1,0,0.2-0.1,0.3c-0.1,0.1-0.2,0.1-0.3,0.2  c-0.1,0-0.3,0-0.5,0h-0.1V33h-0.2V31L34.9,31z M35.1,31.2v0.7l0.3,0c0.1,0,0.2,0,0.3,0c0.1,0,0.1-0.1,0.1-0.1  c0-0.1,0.1-0.1,0.1-0.2c0-0.1,0-0.1-0.1-0.2c0-0.1-0.1-0.1-0.1-0.1c-0.1,0-0.2,0-0.3,0H35.1L35.1,31.2z M38,31h0.2v0.8h1V31h0.2v2  h-0.2V32h-1V33H38V31L38,31z M41.2,31h0.2l0.5,0.8l0.5-0.8h0.2l-0.6,1V33h-0.2V32L41.2,31z"></path>	<g>		<path d="M4,14.2c0,0.1-0.1,0.3-0.1,0.4c-0.4,2.2,1.1,3.5,3.4,3.1c3.2-0.6,6-3.5,8.9-4.9l0,0c0,0,0.1,0,0.1,0l0,0l0,0   c3.8-1,2,3.4,1.9,4.4c-0.1,0.6,0.2,0.3,0.4-0.1c0.7-1.4,1.5-4.5,2.2-5.7c1-1.6,3.5-1.4,3.1,1.1c-0.3,1.9-1.9,4.5-2.2,6.5   c-0.1,1,0,2,0.6,1.9c0.7-0.2,1.6-1.3,2.4-2.8l0.2-0.4c0.3-0.6,0.6-1.2,0.9-1.8l-0.1,1.2c-0.1,0.3-0.3,0.6-0.4,0.8l-0.2,0.3   c-0.8,1.5-1.8,2.8-2.7,3c-0.7,0.2-1.3-0.8-1.3-2.4c0-1.3,0.3-2.7,0.3-3.1c0.1-0.2,0.6-2.4,0.7-3.7c0.1-1.1-0.4-1.5-1.3-0.3   c-0.3,0.5-0.6,1.2-0.9,2c-0.4,1.2-0.8,2.6-1.2,3.4c-0.3,0.5-0.8,1-1.2,0.1c-0.9-2,1-4.9-1.3-4.2l0,0c-3.1,1.3-5.8,4.3-9.1,4.9   c-2.3,0.4-4.1-1-3.8-3.4c0-0.1,0.2-1.4,0.6-1.4c0.2,0,0.3,0.3,0.2,0.6C4.2,14,4.1,14.1,4,14.2z"></path>		<path d="M26.4,20.2c0.3-1.7,0.8-4.1,0.9-5.1c3-4.3,3.9-8.7,3.7-10.9c-0.2-3-1.9-2.6-2.9-0.7   c-1.5,2.8-2.3,9.8-2.5,11.3c-0.2,1.6-0.4,3.2-0.3,4.6c0,4.9,1.5,5,3.2,3.6c2.2-1.8,7.4-9.5,11.5-12.1c2.2-1.4,5.6-1.1,5.9,1.9   c0,0.2,0,0.4,0,0.6c-0.1,0.1-0.2,0.4-0.1,0.7c0.1,0.3,0.3,0.7,0.5,0.6c0.5-0.1,0.2-1.8,0.1-2c-0.5-3.2-4.1-3.7-6.6-2.1   c-4.1,2.6-9.2,10.1-11.5,12.1C26.9,24,25.8,24.1,26.4,20.2L26.4,20.2z M27.5,14.1c0.1-0.7,0.9-7.1,1.7-10c0.5-1.7,1.3-2.8,1.5,0   C30.9,6.2,30,10.3,27.5,14.1z"></path>	</g></g></svg>