<svg xmlns="http://www.w3.org/2000/svg" xmlns:xlink="http://www.w3.org/1999/xlink" x="0px" y="0px" viewBox="0 0 100 25" style="enable-background:new 0 0 100 25;" xml:space="preserve"><g>	<path d="M44.7,3.9c-1.5-1-3.3-1.4-5.1-1.4l-0.1,0l0,0.2l0.1,0c1.1,0.2,2,0.6,2.9,1.3c1.3,1,2.2,2.3,2.7,3.8  c0.7,1.7,0.9,3.6,0.9,5.4c0,1.7-0.2,3.4-0.8,4.9c-0.5,1.3-1.2,2.4-2.3,3.2l-0.1,0.1l0.1,0.1l0.1,0c0.3-0.1,0.5-0.2,0.8-0.4  c1.6-0.9,3-2.1,4-3.7c1-1.6,1.5-3.3,1.5-5.1c0-1.7-0.4-3.3-1.2-4.8C47.3,6,46.2,4.8,44.7,3.9z"></path>	<path d="M35.5,21c-1.3-1.1-2.1-2.5-2.7-4c-0.7-1.8-1-3.8-1-5.7c0-2.2,0.3-4.6,1.6-6.4c0.3-0.4,0.7-0.8,1.1-1.1l0.1-0.1  l-0.1-0.1l-0.1,0c0,0,0,0,0,0c-1.7,0.8-3.1,1.9-4.1,3.4c-1.1,1.6-1.6,3.5-1.6,5.4c0,1.8,0.4,3.5,1.2,5c0.8,1.5,2,2.7,3.4,3.6  c1.4,0.8,3,1.3,4.6,1.3l0.1,0l0-0.2l-0.1,0C37,22.1,36.2,21.6,35.5,21z"></path>	<path d="M56.9,21.4c-0.5-0.7-0.7-1.6-0.8-2.5l0-0.1l-0.2,0l0,0.1c-0.1,0.9-0.3,1.8-0.9,2.5c-0.2,0.2-0.3,0.4-0.5,0.5  l-0.2,0.2h3.3l-0.2-0.2C57.2,21.8,57,21.6,56.9,21.4z"></path>	<path d="M58.8,3.4c-0.1-0.2-0.2-0.3-0.4-0.5l0,0l0,0c0,0-0.1,0-0.1,0c-0.4,0-0.7,0-1.1,0l-2.4,0c-0.2,0-0.3,0-0.5,0  l-0.3,0l0.3,0.2c0.6,0.4,1.2,1,1.7,1.5L56,4.7l15.6,17.7v-4.3L59.6,4.4C59.3,4.1,59,3.7,58.8,3.4z"></path>	<path d="M70.1,3.1c0.2,0.2,0.3,0.3,0.5,0.5c0.5,0.7,0.7,1.5,0.8,2.3l0,0.1l0.2,0l0-0.1c0.1-0.8,0.3-1.6,0.8-2.3  c0.1-0.2,0.3-0.4,0.5-0.5l0.2-0.2l-3.1,0L70.1,3.1z"></path>	<path d="M1.5,2.9l0.2,0.2c0.6,0.5,1,1.1,1.4,1.8l0.1,0.2l8.8,16.8l1.5-3.6l-7.5-14C4.8,2,3.2,2.5,1.5,2.9z"></path>	<path d="M3.8,21.4c-0.5-0.6-0.7-1.4-0.7-2.1l0-0.1l-0.2,0l0,0.1c-0.1,0.8-0.3,1.5-0.8,2.1c-0.2,0.2-0.3,0.4-0.5,0.5  l-0.2,0.2l3.2,0l-0.2-0.2C4.1,21.8,4,21.6,3.8,21.4z"></path>	<path d="M22.3,3.6c0.1-0.2,0.2-0.3,0.3-0.5l0.1-0.2l-4,0l0.1,0.2c0.1,0.1,0.2,0.3,0.3,0.4c0.2,0.5,0.2,1.1,0.2,1.6  v14.9c0,0.5,0,1.1-0.2,1.6c-0.1,0.2-0.1,0.3-0.3,0.4l-0.1,0.2h4l-0.1-0.2c-0.1-0.1-0.2-0.3-0.2-0.4c-0.2-0.5-0.2-1.1-0.2-1.6V5.1  C22.1,4.6,22.1,4,22.3,3.6z"></path>	<path d="M82,21.8c-0.7-0.5-1-1.3-1-2.1c0-0.4,0.1-0.7,0.2-1.1l0-0.1l-0.2-0.1l0,0.1c-0.3,0.7-0.7,1.5-1.1,2.1  c-0.3,0.4-0.6,0.9-1,1.2l-0.2,0.2l3.7,0L82,21.8C82.1,21.8,82,21.8,82,21.8z"></path>	<path d="M94,22.1h4.7l-0.2-0.1l-0.4-0.4c-0.8-0.9-1.4-2.2-1.9-3.2l-8-15.7l-1.5,3.3l3.3,6.5h0l3.5,6.9  c0.3,0.5,0.7,1.4,0.7,2c0,0.2,0,0.4-0.1,0.6L94,22.1z"></path></g></svg>