<svg xmlns="http://www.w3.org/2000/svg" xmlns:xlink="http://www.w3.org/1999/xlink" x="0px" y="0px" viewBox="0 0 50 50" style="enable-background:new 0 0 50 50;" xml:space="preserve"><g>	<path d="M17.9,25.4c0,0,0.2,0.1,0.5,0.2c0.3,0.2,0.4,0.4,0.5,0.5h0.1c0,0,0.2-0.3,0.5-0.8c0.1-0.1,0.2-0.2,0.2-0.2h-0.1L17.9,25.4  L17.9,25.4L17.9,25.4z M22.2,23.5L22.2,23.5c1.4-0.2,3.4-0.4,5.8-0.6c0.2,0,0.5,0,0.8-0.1c0.1-0.2,0.4-0.8,0.9-1.7  c0.4-0.9,1.1-2.1,1.9-3.8c0.8-1.6,1.4-3.2,2-4.6c0.4-0.9,0.6-1.7,0.8-2.5c0.1-0.5,0.2-0.9,0.2-1.2c0,0,0-0.1,0-0.1h0  c-0.1,0-0.4,0.2-0.9,0.6c-0.5,0.4-1.1,1-1.9,1.8c-0.4,0.4-0.7,0.8-1.1,1.2c-0.5,0.5-0.8,0.9-0.9,1.1c0,0-0.2,0.2-0.6,0.7l-1.4,1.7  c0,0,0,0.1-0.1,0.2c0,0-0.3,0.3-0.7,0.9c-0.3,0.4-0.5,0.6-0.5,0.6c0,0-0.1,0.1-0.2,0.3c0,0-0.1,0.2-0.4,0.5c0,0-0.1,0.1-0.2,0.3  c-0.6,0.7-1,1.3-1.2,1.6c-0.1,0.1-0.3,0.3-0.6,0.8c-0.4,0.5-0.8,1.1-1.3,1.8C22.4,23.2,22.2,23.4,22.2,23.5L22.2,23.5L22.2,23.5z   M34.9,7.6c0.3,0,0.6,0.2,0.8,0.5c0.1,0.1,0.2,0.4,0.2,0.8V9c0,0.7-0.3,1.7-0.8,3.2c0,0.1-0.1,0.3-0.3,0.8c0,0.1-0.1,0.3-0.3,0.8  c-0.7,1.6-1.4,3.1-2.1,4.6c0,0-0.1,0.2-0.2,0.5L32,19.3c0,0.1-0.1,0.3-0.3,0.6c-0.1,0.2-0.2,0.5-0.4,0.8c-0.1,0-0.1,0.2-0.3,0.5  c-0.5,1-0.8,1.5-0.8,1.6h0c2.7-0.2,6.1-0.2,10.1-0.2c0.7,0,1.7,0,3.1,0c0.3,0.1,0.4,0.2,0.4,0.4c0,0.1,0.1,0.1,0.1,0.2  c0,0.2-0.1,0.3-0.2,0.5c-0.1,0.1-0.2,0.1-0.3,0.1c-0.1,0-0.1,0-0.1,0c-1.2,0-2,0-2.6,0h-1.4c-1.6,0-3.9,0.1-7.1,0.2  c-0.5,0-1.3,0.1-2.3,0.1c-0.2,0-0.2,0.1-0.2,0.2c-0.1,0.2-0.2,0.4-0.3,0.5l-1.4,2.6c-0.1,0.1-0.2,0.3-0.4,0.7c0,0-0.1,0.2-0.3,0.5  c-0.3,0.6-0.7,1.2-1,1.8c0,0-0.1,0.2-0.3,0.5c0,0-0.4,0.8-1.3,2.3c-0.1,0.2-0.3,0.3-0.5,0.3c0,0,0,0-0.1,0c-0.3,0-0.4-0.1-0.5-0.4  l0-0.2c0-0.2,0.1-0.4,0.3-0.8c0,0,0.2-0.4,0.6-1.1l0.9-1.7c0.8-1.4,1.4-2.6,2-3.6c0.6-1,0.9-1.6,0.9-1.6l0,0h-0.1  c-1.4,0.1-2.6,0.2-3.6,0.3c-0.1,0-0.3,0-0.7,0.1l-2.6,0.3c-0.5,0.7-0.9,1.3-1.1,1.5c-0.3,0.4-0.7,0.9-1.2,1.8c0,0-0.1,0.2-0.2,0.4  c-0.1,0.2-0.3,0.2-0.5,0.2h-0.1c-0.2,0-0.4-0.2-0.5-0.5v-0.3l0.2-0.5c0.1-0.1,0.1-0.3,0.1-0.4V27c0-0.2-0.2-0.4-0.6-0.5  c-0.5-0.2-1.1-0.2-1.7-0.2c-0.6,0-1.4,0.1-2.4,0.2c-0.6,0.1-0.9,0.2-1,0.2h-0.1c-0.3,0-0.4-0.2-0.5-0.5c0-0.1,0-0.1,0-0.1  c0-0.2,0.1-0.3,0.2-0.4c0.1-0.1,0.4-0.2,0.8-0.3c0.2-0.1,0.7-0.2,1.5-0.4c1.1-0.3,1.7-0.4,1.7-0.4c0.1,0,0.4-0.1,1.1-0.2  c0,0,0.3-0.1,0.8-0.2c0.6-0.1,1.5-0.3,2.7-0.5c0.1,0,0.3-0.3,0.5-0.6c0.6-0.8,0.9-1.2,0.9-1.2l2-2.8c0.8-1.1,1.7-2.3,2.8-3.6l0.8-1  c0,0,0.1-0.1,0.2-0.3c0,0,0.1-0.1,0.3-0.4c0.8-1,1.6-1.9,2.4-2.8c0.8-0.9,1.5-1.6,2.1-2.2c0.7-0.6,1.3-1,1.7-1.2  C34.5,7.7,34.7,7.7,34.9,7.6L34.9,7.6L34.9,7.6z"></path>	<path d="M25.7,39.8c-0.1,0-0.2,0-0.4,0c-0.2,0-0.3,0-0.4,0c-5.4,0-10.2-2.2-13.7-5.7c-3.5-3.5-5.7-8.4-5.7-13.7  c0-5.4,2.2-10.2,5.7-13.7C14.8,3.2,19.6,1,25,1c5.4,0,10.2,2.2,13.7,5.7c3.5,3.5,5.7,8.4,5.7,13.7c0,0.5,0,1-0.1,1.5  c0,0.5-0.1,1-0.2,1.5l-0.8-0.1c0.1-0.5,0.1-1,0.2-1.4c0-0.5,0.1-1,0.1-1.5c0-5.1-2.1-9.8-5.4-13.1c-3.4-3.4-8-5.4-13.1-5.4  c-5.1,0-9.8,2.1-13.1,5.4c-3.4,3.4-5.4,8-5.4,13.1c0,5.1,2.1,9.8,5.4,13.1c3.4,3.4,8,5.4,13.1,5.4c0.2,0,0.3,0,0.4,0  c0.1,0,0.2,0,0.4,0L25.7,39.8L25.7,39.8z"></path>	<path d="M10.2,45.3c0.2,0,0.3,0,0.4-0.1c0.1-0.1,0.1-0.1,0.1-0.3c0-0.1,0-0.2-0.1-0.3c-0.1,0-0.2-0.1-0.4-0.1H9.8v0.7H10.2  L10.2,45.3L10.2,45.3z M11,45c0,0.3-0.1,0.5-0.4,0.6l0.5,0.7h-0.4l-0.5-0.6H9.8v0.6H9.4v-1.9h0.7c0.3,0,0.5,0,0.6,0.1  C10.9,44.6,11,44.7,11,45L11,45L11,45z M17.1,44.3v0.3h-1v0.5H17v0.3h-0.9v0.5h1.1v0.3h-1.4v-1.9H17.1L17.1,44.3L17.1,44.3z   M23,45.5l-0.3-0.8l-0.3,0.8H23L23,45.5L23,45.5z M22.2,45.8L22,46.3h-0.3l0.8-1.9h0.3l0.8,1.9h-0.3l-0.2-0.4H22.2L22.2,45.8  L22.2,45.8z M29,44.6v1.6h-0.3v-1.6h-0.6v-0.3h1.5v0.3H29L29,44.6L29,44.6z M34.2,46.3h0.3v-1.9h-0.3V46.3L34.2,46.3z M40.3,46.3  h-0.4l-0.8-1.9h0.4l0.6,1.4l0.6-1.4H41L40.3,46.3L40.3,46.3L40.3,46.3z M47,44.3v0.3h-1v0.5h0.9v0.3H46v0.5H47v0.3h-1.4v-1.9H47  L47,44.3L47,44.3z M4,46c0.1,0,0.2,0,0.3-0.1c0.1,0,0.2-0.1,0.3-0.2l0.2,0.2c-0.2,0.2-0.4,0.3-0.7,0.3c-0.3,0-0.5-0.1-0.7-0.3  C3.1,45.8,3,45.6,3,45.3c0-0.3,0.1-0.5,0.3-0.7c0.2-0.2,0.4-0.3,0.7-0.3c0.3,0,0.5,0.1,0.7,0.3l-0.2,0.2c-0.1-0.1-0.2-0.1-0.3-0.2  c-0.1,0-0.2-0.1-0.3-0.1c-0.2,0-0.4,0.1-0.5,0.2c-0.1,0.1-0.2,0.3-0.2,0.5c0,0.2,0.1,0.4,0.2,0.5C3.6,45.9,3.8,46,4,46L4,46L4,46z"></path>	<path d="M17.6,48.9C17.6,49,17.5,49,17.4,49c-0.1,0-0.2,0-0.3-0.1C17,48.8,17,48.7,17,48.6c0-0.1,0-0.2,0.1-0.3  c0.1-0.1,0.2-0.1,0.3-0.1c0.1,0,0.2,0,0.3,0.1c0.1,0.1,0.1,0.2,0.1,0.3C17.7,48.7,17.7,48.8,17.6,48.9L17.6,48.9L17.6,48.9z   M17.5,48.5c-0.1,0-0.1-0.1-0.2-0.1c-0.1,0-0.1,0-0.2,0.1c-0.1,0-0.1,0.1-0.1,0.2c0,0.1,0,0.1,0.1,0.2c0.1,0,0.1,0.1,0.2,0.1  c0.1,0,0.1,0,0.2-0.1c0.1,0,0.1-0.1,0.1-0.2C17.6,48.6,17.6,48.5,17.5,48.5L17.5,48.5L17.5,48.5z M19.2,48.8c0,0,0.1,0.1,0.1,0.1  c0.1,0,0.1,0,0.1-0.1c0,0,0.1-0.1,0.1-0.2v-0.4h0.1v0.4c0,0.1,0,0.2-0.1,0.2C19.5,49,19.4,49,19.3,49C19.2,49,19.2,49,19.2,48.8  c-0.1,0-0.2,0-0.2-0.1v-0.4h0.1v0.4C19.1,48.7,19.2,48.8,19.2,48.8L19.2,48.8L19.2,48.8z M21.2,48.7c0.1,0,0.1,0,0.1,0  c0,0,0-0.1,0-0.1c0,0,0-0.1,0-0.1c0,0-0.1,0-0.1,0h-0.2v0.2H21.2L21.2,48.7L21.2,48.7z M21.5,48.5c0,0.1-0.1,0.2-0.2,0.2l0.2,0.3  h-0.2l-0.2-0.2h-0.2V49H21v-0.7h0.3c0.1,0,0.2,0,0.2,0.1C21.5,48.4,21.5,48.4,21.5,48.5L21.5,48.5L21.5,48.5z M23.7,48.4V49h-0.1  v-0.6h-0.2v-0.1h0.6v0.1H23.7L23.7,48.4L23.7,48.4z M25.6,48.7l-0.1-0.3l-0.1,0.3H25.6L25.6,48.7L25.6,48.7z M25.3,48.8L25.2,49  h-0.1l0.3-0.7h0.1l0.3,0.7h-0.1l-0.1-0.2H25.3L25.3,48.8L25.3,48.8z M27.6,48.7h0.1v0.2C27.7,49,27.6,49,27.4,49  c-0.1,0-0.2,0-0.3-0.1c-0.1-0.1-0.1-0.2-0.1-0.3c0-0.1,0-0.2,0.1-0.3c0.1-0.1,0.2-0.1,0.3-0.1c0.1,0,0.2,0,0.3,0.1l-0.1,0.1  c0,0-0.1,0-0.1,0c0,0-0.1,0-0.1,0c-0.1,0-0.1,0-0.2,0.1c-0.1,0-0.1,0.1-0.1,0.2c0,0.1,0,0.1,0.1,0.2c0.1,0,0.1,0.1,0.2,0.1  c0.1,0,0.1,0,0.2,0V48.7L27.6,48.7z M29,49v-0.7h0.1v0.6h0.3V49H29L29,49L29,49z M30.8,49h0.1v-0.7h-0.1V49L30.8,49z M32.8,48.3  h0.1V49h-0.1l-0.4-0.5V49h-0.1v-0.7h0.1l0.4,0.5V48.3L32.8,48.3z M34.7,48.3v0.1h-0.4v0.2h0.4v0.1h-0.4v0.2h0.4V49h-0.5v-0.7H34.7  L34.7,48.3L34.7,48.3z M15.5,49h-0.1v-0.3l-0.3-0.4h0.1l0.2,0.3l0.2-0.3h0.1l-0.3,0.4V49L15.5,49z"></path>	<path d="M24.2,33.2l0.2-0.9c0.5,0,0.8-0.2,1.2-0.6c0.3-0.4,0.6-1.1,0.9-2c0.1-0.4,0.2-0.9,0.4-1.5c0.2-0.8,0.5-1.3,0.8-1.3  c0.4,0,0.6,0,0.7,0.1c0.1,0,0.2,0.1,0.2,0.2c0,0.1-0.1,0.4-0.4,1.1c-0.3,0.7-0.5,1.3-0.7,2c0.7-1.2,1.3-2,1.8-2.5  c0.5-0.5,1-0.7,1.4-0.7c0.3,0,0.5,0.1,0.6,0.2c0.2,0.1,0.2,0.3,0.2,0.6c0,0.2-0.1,0.4-0.2,0.8c-0.1,0.4-0.4,0.9-0.7,1.5  c0.8-1.3,1.5-2.2,1.9-2.6c0.4-0.4,0.9-0.6,1.4-0.6c0.3,0,0.6,0.1,0.7,0.2c0.2,0.2,0.3,0.4,0.3,0.6c0,0.3-0.3,1.1-0.8,2.5l-0.1,0.3  c-0.1,0.2-0.2,0.5-0.2,0.7c-0.1,0.2-0.1,0.4-0.1,0.5c0,0.2,0.1,0.3,0.2,0.3c0.1,0.1,0.4,0.1,0.7,0.1l-0.2,0.9h-0.1  c-0.8,0-1.3-0.1-1.6-0.3c-0.3-0.2-0.5-0.5-0.5-0.9c0-0.3,0.2-0.8,0.5-1.7c0.1-0.2,0.2-0.4,0.2-0.6c0.2-0.4,0.3-0.7,0.3-0.9  c0.1-0.2,0.1-0.3,0.1-0.3c0-0.1,0-0.1,0-0.2c0,0-0.1,0-0.1,0c-0.2,0-0.6,0.3-1.1,1c-0.5,0.7-1,1.5-1.5,2.4  c-0.1,0.2-0.2,0.5-0.4,0.9c-0.2,0.4-0.4,0.6-0.8,0.6c-0.3,0-0.6,0-0.7-0.1c-0.1,0-0.2-0.1-0.2-0.2c0-0.1,0.1-0.3,0.3-0.8  c0.2-0.5,0.4-0.9,0.5-1.2c0.3-0.9,0.6-1.4,0.6-1.7c0.1-0.3,0.1-0.5,0.1-0.6c0-0.1,0-0.1-0.1-0.2c0,0-0.1-0.1-0.2-0.1  c-0.2,0-0.6,0.3-1.1,1c-0.5,0.7-1,1.4-1.3,2.1c-0.2,0.3-0.3,0.7-0.4,1c-0.1,0.4-0.2,0.6-0.2,0.6c-0.1,0.1-0.1,0.1-0.3,0.1  c-0.1,0-0.3,0-0.6,0c-0.2,0-0.3,0-0.4,0c-0.1,0-0.1-0.1-0.1-0.2c0-0.1,0-0.2,0.1-0.4c0,0,0-0.1,0-0.1c-0.2,0.2-0.4,0.3-0.7,0.4  C24.8,33.2,24.5,33.2,24.2,33.2L24.2,33.2L24.2,33.2z"></path>	<path d="M35.7,31.9c0.4,0,0.7,0.3,0.7,0.7c0,0.4-0.3,0.7-0.7,0.7c-0.4,0-0.7-0.3-0.7-0.7C35,32.2,35.3,31.9,35.7,31.9  L35.7,31.9L35.7,31.9z"></path></g></svg>