<svg xmlns="http://www.w3.org/2000/svg" xmlns:xlink="http://www.w3.org/1999/xlink" x="0px" y="0px" viewBox="0 0 100 25" style="enable-background:new 0 0 100 25;" xml:space="preserve"><g>	<g>		<path d="M3.1,4.7c0-0.1,0-0.2,0-0.3h0C3,4.7,2.7,4.9,2.4,4.9C2,4.9,1.7,4.7,1.7,4.4c0-0.4,0.4-0.6,1.1-0.6c0.1,0,0.2,0,0.3,0V3.6   C3.1,3.1,2.9,3,2.5,3C2.4,3,2.2,3,2.1,3C2,3.1,2,3.2,1.9,3.2L1.9,3.2C1.9,3.1,2,3,2.1,3c0.1-0.1,0.2-0.1,0.4-0.1   c0.5,0,0.7,0.2,0.7,0.7v1c0,0.1,0,0.2,0,0.3H3.1V4.7z M3.1,3.8c-0.1,0-0.2,0-0.3,0c-0.7,0-1,0.2-1,0.6c0,0.3,0.2,0.4,0.6,0.4   c0.3,0,0.6-0.2,0.7-0.5V3.8z"></path>		<path d="M14.9,4.9c0-0.1,0-0.2,0-0.3V3.6c0-0.5-0.2-0.7-0.6-0.7c-0.4,0-0.7,0.3-0.7,0.7v1c0,0.1,0,0.2,0,0.3h-0.1   c0-0.1,0-0.2,0-0.3V3.6c0-0.5-0.2-0.7-0.6-0.7c-0.4,0-0.7,0.3-0.7,0.7v1c0,0.1,0,0.2,0,0.3h-0.1c0-0.1,0-0.2,0-0.3V3.2   c0-0.1,0-0.2,0-0.3h0.1v0.2c0,0.1,0,0.2,0,0.3h0c0.1-0.3,0.4-0.5,0.7-0.5c0.3,0,0.5,0.2,0.6,0.5c0.1-0.3,0.3-0.5,0.7-0.5   c0.4,0,0.6,0.3,0.6,0.7v1c0,0.1,0,0.2,0,0.3H14.9z"></path>		<path d="M19.6,2.2C19.6,2.3,19.6,2.3,19.6,2.2c-0.1,0.1-0.2,0.1-0.2,0C19.5,2.2,19.5,2.1,19.6,2.2C19.6,2.1,19.6,2.2,19.6,2.2z    M19.6,2.9c0,0.1,0,0.2,0,0.3v1.4c0,0.1,0,0.2,0,0.3h-0.1c0-0.1,0-0.2,0-0.3V3.2c0-0.1,0-0.2,0-0.3H19.6z"></path>		<path d="M25.6,4.9c0-0.1,0-0.2,0-0.3v-1c0-0.4-0.2-0.7-0.6-0.7c-0.4,0-0.7,0.3-0.7,0.7v1c0,0.1,0,0.2,0,0.3h-0.1   c0-0.1,0-0.2,0-0.3V3.2c0-0.1,0-0.2,0-0.3h0.1v0.2c0,0.1,0,0.2,0,0.3h0c0.1-0.3,0.4-0.5,0.7-0.5c0.4,0,0.7,0.3,0.7,0.7v1   c0,0.1,0,0.2,0,0.3H25.6z"></path>		<path d="M30.3,2.2C30.3,2.3,30.3,2.3,30.3,2.2c-0.1,0.1-0.2,0.1-0.2,0C30.1,2.2,30.2,2.1,30.3,2.2C30.3,2.1,30.3,2.2,30.3,2.2z    M30.3,2.9c0,0.1,0,0.2,0,0.3v1.4c0,0.1,0,0.2,0,0.3h-0.1c0-0.1,0-0.2,0-0.3V3.2c0-0.1,0-0.2,0-0.3H30.3z"></path>		<path d="M37.4,4.9c0-0.1,0-0.2,0-0.3V3.6c0-0.5-0.2-0.7-0.6-0.7c-0.4,0-0.7,0.3-0.7,0.7v1c0,0.1,0,0.2,0,0.3h-0.1   c0-0.1,0-0.2,0-0.3V3.6c0-0.5-0.2-0.7-0.6-0.7c-0.4,0-0.7,0.3-0.7,0.7v1c0,0.1,0,0.2,0,0.3h-0.1c0-0.1,0-0.2,0-0.3V3.2   c0-0.1,0-0.2,0-0.3h0.1v0.2c0,0.1,0,0.2,0,0.3h0c0.1-0.3,0.4-0.5,0.7-0.5c0.3,0,0.5,0.2,0.6,0.5c0.1-0.3,0.3-0.5,0.7-0.5   c0.4,0,0.6,0.3,0.6,0.7v1c0,0.1,0,0.2,0,0.3H37.4z"></path>		<path d="M43.2,4.7c0-0.1,0-0.2,0-0.3h0c-0.1,0.3-0.4,0.5-0.8,0.5c-0.4,0-0.7-0.2-0.7-0.5c0-0.4,0.4-0.6,1.1-0.6c0.1,0,0.2,0,0.3,0   V3.6C43.2,3.1,43,3,42.6,3c-0.1,0-0.3,0-0.4,0.1c-0.1,0-0.2,0.1-0.2,0.2l-0.1-0.1C42,3.1,42.1,3,42.2,3c0.1-0.1,0.2-0.1,0.4-0.1   c0.5,0,0.7,0.2,0.7,0.7v1c0,0.1,0,0.2,0,0.3h-0.1V4.7z M43.2,3.8c-0.1,0-0.2,0-0.3,0c-0.7,0-1,0.2-1,0.6c0,0.3,0.2,0.4,0.6,0.4   c0.3,0,0.6-0.2,0.7-0.5V3.8z"></path>		<path d="M47.9,2c0,0.1,0,0.2,0,0.3v2.3c0,0.1,0,0.2,0,0.3h-0.1c0-0.1,0-0.2,0-0.3V2.3c0-0.1,0-0.2,0-0.3H47.9z"></path>		<path d="M58.2,4.7c0-0.1,0-0.2,0-0.3h0c-0.1,0.3-0.4,0.5-0.8,0.5c-0.4,0-0.7-0.2-0.7-0.5c0-0.4,0.4-0.6,1.1-0.6c0.1,0,0.2,0,0.3,0   V3.6C58.2,3.1,58,3,57.6,3c-0.1,0-0.3,0-0.4,0.1c-0.1,0-0.2,0.1-0.2,0.2L57,3.2C57.1,3.1,57.1,3,57.2,3c0.1-0.1,0.2-0.1,0.4-0.1   c0.5,0,0.7,0.2,0.7,0.7v1c0,0.1,0,0.2,0,0.3h-0.1V4.7z M58.2,3.8c-0.1,0-0.2,0-0.3,0c-0.7,0-1,0.2-1,0.6c0,0.3,0.2,0.4,0.6,0.4   c0.3,0,0.6-0.2,0.7-0.5V3.8z"></path>		<path d="M63,2c0,0.1,0,0.2,0,0.3v2.3c0,0.1,0,0.2,0,0.3h-0.1c0-0.1,0-0.2,0-0.3V2.3c0-0.1,0-0.2,0-0.3H63z"></path>		<path d="M67.6,3.5c0.1-0.4,0.4-0.6,0.8-0.6c0.5,0,0.9,0.4,0.9,1c0,0.6-0.3,1-0.9,1c-0.4,0-0.7-0.2-0.8-0.6h0c0,0.1,0,0.2,0,0.4   v0.9c0,0.1,0,0.2,0,0.3h-0.1c0-0.1,0-0.2,0-0.3V3.2c0-0.1,0-0.2,0-0.3h0.1v0.3C67.6,3.3,67.6,3.4,67.6,3.5L67.6,3.5z M69.2,3.9   c0-0.6-0.3-0.9-0.8-0.9c-0.5,0-0.8,0.4-0.8,0.9c0,0.6,0.3,0.9,0.8,0.9C68.8,4.8,69.2,4.5,69.2,3.9z"></path>		<path d="M75,4.9c0-0.1,0-0.2,0-0.3v-1c0-0.4-0.2-0.7-0.6-0.7c-0.4,0-0.7,0.3-0.7,0.7v1c0,0.1,0,0.2,0,0.3h-0.1c0-0.1,0-0.2,0-0.3   V2.3c0-0.1,0-0.2,0-0.3h0.1c0,0.1,0,0.2,0,0.3v1.1c0.1-0.3,0.4-0.5,0.7-0.5c0.4,0,0.7,0.3,0.7,0.7v1c0,0.1,0,0.2,0,0.3H75z"></path>		<path d="M80.8,4.7c0-0.1,0-0.2,0-0.3h0c-0.1,0.3-0.4,0.5-0.8,0.5c-0.4,0-0.7-0.2-0.7-0.5c0-0.4,0.4-0.6,1.1-0.6c0.1,0,0.2,0,0.3,0   V3.6c0-0.4-0.2-0.6-0.6-0.6C80,3,79.9,3,79.8,3c-0.1,0-0.2,0.1-0.2,0.2l-0.1-0.1C79.6,3.1,79.7,3,79.8,3c0.1-0.1,0.2-0.1,0.4-0.1   c0.5,0,0.7,0.2,0.7,0.7v1c0,0.1,0,0.2,0,0.3h-0.1V4.7z M80.8,3.8c-0.1,0-0.2,0-0.3,0c-0.7,0-1,0.2-1,0.6c0,0.3,0.2,0.4,0.6,0.4   c0.3,0,0.6-0.2,0.7-0.5V3.8z"></path>		<path d="M85.4,3.5c0.1-0.4,0.4-0.6,0.8-0.6c0.5,0,0.9,0.4,0.9,1c0,0.6-0.3,1-0.9,1c-0.4,0-0.7-0.2-0.8-0.6h0c0,0.1,0,0.2,0,0.3   v0.3h-0.1c0-0.1,0-0.2,0-0.3V2.3c0-0.1,0-0.2,0-0.3h0.1c0,0.1,0,0.2,0,0.3v0.9C85.4,3.3,85.4,3.4,85.4,3.5L85.4,3.5z M87,3.9   c0-0.6-0.3-0.9-0.8-0.9s-0.8,0.4-0.8,0.9c0,0.6,0.3,0.9,0.8,0.9C86.7,4.8,87,4.5,87,3.9z"></path>		<path d="M91.4,3.9L91.4,3.9c0,0.6,0.3,1,0.8,1c0.2,0,0.4-0.1,0.5-0.2c0.1,0,0.1-0.1,0.2-0.2L93,4.6c0,0-0.1,0.1-0.1,0.1   c-0.2,0.1-0.4,0.2-0.6,0.2C91.7,4.9,91.3,4.5,91.4,3.9c-0.1-0.6,0.3-1,0.8-1c0.5,0,0.8,0.3,0.8,0.9v0.1H91.4z M92.9,3.8   c0-0.5-0.3-0.8-0.7-0.8c-0.5,0-0.8,0.3-0.8,0.8H92.9z"></path>		<path d="M98.3,4.8c-0.1,0-0.2,0.1-0.3,0.1c-0.3,0-0.5-0.2-0.5-0.5V3h-0.2c-0.1,0-0.2,0-0.3,0V2.9c0.1,0,0.2,0,0.3,0h0.2V2.6   c0-0.1,0-0.2,0-0.3h0.1c0,0.1,0,0.2,0,0.3v0.3h0.3c0.1,0,0.2,0,0.3,0V3c-0.1,0-0.2,0-0.3,0h-0.3v1.4c0,0.3,0.2,0.4,0.4,0.4   C98.1,4.8,98.2,4.8,98.3,4.8L98.3,4.8z"></path>	</g>	<g>		<rect x="37.9" y="8.5" width="2.2" height="14.3"></rect>		<path d="M23.4,8.4c1.4,0,2.7,0.5,3.5,1.4c1.2,1.3,1.2,2.9,1.2,4.8v8.3h-2.2v-8.3c0-1.6,0-2.7-0.6-3.3c-0.4-0.5-1-0.7-1.8-0.7   c-0.7,0-1.4,0.2-1.8,0.7C21,11.9,21,13,21,14.6v8.3h-2.2v-8.3c0-1.8,0-3.4,1.2-4.8C20.7,8.9,22,8.4,23.4,8.4z"></path>		<g>			<path d="M98.3,8.5h-5.1c-1.8,0-3.2,1.4-3.2,3.2v7.9c0,1.8,1.4,3.2,3.2,3.2h5.1v-2.2h-4.5c-0.9,0-1.6-0.7-1.6-1.6v-6.8    c0-0.9,0.7-1.6,1.6-1.6h4.5V8.5z"></path>			<path d="M94.3,15.7c0,0.6,0.5,1.1,1.1,1.1c0.6,0,1.1-0.5,1.1-1.1s-0.5-1.1-1.1-1.1C94.8,14.5,94.3,15,94.3,15.7z"></path>		</g>		<g>			<path d="M59.1,10.6c-0.8-1.4-2.4-2.2-4.2-2.2c-1.8,0-3.4,0.8-4.2,2.2c-0.8,1.3-0.8,2.6-0.8,5.1c0,2.5,0,3.8,0.8,5.1    c0.8,1.4,2.4,2.2,4.2,2.2c1.8,0,3.4-0.8,4.2-2.2c0.8-1.3,0.8-2.6,0.8-5.1C59.9,13.3,59.9,11.9,59.1,10.6z M57.2,19.7    c-0.4,0.7-1.3,1.1-2.3,1.1c-1,0-1.9-0.4-2.3-1.1c-0.5-0.8-0.5-2-0.5-4c0-2,0-3.2,0.5-4c0.4-0.7,1.3-1.1,2.3-1.1    c1,0,1.9,0.4,2.3,1.1c0.5,0.8,0.5,2,0.5,4C57.7,17.7,57.7,18.9,57.2,19.7z"></path>			<path d="M60.6,20.6c-0.6,0-1.1,0.5-1.1,1.1c0,0.6,0.5,1.1,1.1,1.1c0.6,0,1.1-0.5,1.1-1.1C61.8,21.1,61.3,20.6,60.6,20.6z"></path>		</g>		<g>			<path d="M5.7,20.8c-0.4-0.1-0.8-0.3-1.1-0.6C4,19.5,4,18.4,4,16.8V8.5H1.7v8.3c0,1.8,0,3.4,1.2,4.8c0.7,0.8,1.7,1.2,2.8,1.4V20.8    z"></path>			<path d="M8.7,8.5v8.3c0,1.6,0,2.7-0.6,3.3c-0.3,0.3-0.7,0.5-1.1,0.6V23c1.1-0.1,2.1-0.6,2.8-1.4c1.2-1.3,1.2-2.9,1.2-4.8V8.5H8.7    z"></path>		</g>		<g>			<path d="M74.7,20.8c-0.4-0.1-0.8-0.3-1.1-0.6C73,19.5,73,18.4,73,16.8V8.5h-2.2v8.3c0,1.8,0,3.4,1.2,4.8c0.7,0.8,1.7,1.2,2.8,1.4    V20.8z"></path>			<path d="M77.8,8.5v8.3c0,1.6,0,2.7-0.6,3.3c-0.3,0.3-0.7,0.5-1.1,0.6V23c1.1-0.1,2.1-0.6,2.8-1.4c1.2-1.3,1.2-2.9,1.2-4.8V8.5    H77.8z"></path>		</g>	</g></g></svg>