<svg xmlns="http://www.w3.org/2000/svg" xmlns:xlink="http://www.w3.org/1999/xlink" x="0px" y="0px" viewBox="159 35 680.5 729.1" style="enable-background:new 159 35 680.5 729.1;" xml:space="preserve">                    <g>                      <g>                        <g>                          <path d="M500,654c-1.5,0-6.3-0.2-7.1-2.5l-0.7-2.2l-1.5-1.7c-15.1-16.7-69.5-81.2-120-155.1c-66.8-97.7-102.1-175.5-102.1-225                                   C268.5,139.9,372.4,36,500,36c62.1,0,120.4,24.4,164.4,68.6c43.7,44,68.4,102.8,69.6,165.5c0,46.8-32.1,119.5-92.7,210                                   C591.9,554,537.8,618.9,517.4,643.4c-2.3,2.8-4.2,5-5.5,6.7C509.2,652.5,504.8,654,500,654z M500,64                                   c-112.2,0-203.5,91.3-203.5,203.5c0,38.3,24.4,96.2,72.7,172.1c43.9,69.2,95.5,134.5,122.3,167.3l8.4,10.2l8.5-10.1                                   c8-9.4,195.1-232.5,195.1-339.6C703.5,155.3,612.2,64,500,64z"></path>                        </g>                        <g>                          <path d="M500,391.5c-33.3,0-64.5-12.8-87.8-36.2C388.8,332,376,300.8,376,267.5s12.8-64.5,36.2-87.8                                   c23.3-23.3,54.5-36.2,87.8-36.2s64.5,12.8,87.8,36.2c23.3,23.3,36.2,54.5,36.2,87.8s-12.8,64.5-36.2,87.8                                   C564.5,378.7,533.3,391.5,500,391.5z M500,171.5c-53.8,0-96,42.2-96,96s42.2,96,96,96c53.8,0,96-42.2,96-96                                   S553.8,171.5,500,171.5z"></path>                        </g>                        <g>                          <path d="M500,764c-88,0-173.5-10.5-234.6-28.9C217.7,720.8,161,694.8,161,652.5c0-58.5,103.9-87.2,165.9-99.2                                   c0.9-0.1,1.8-0.2,2.7-0.2c7.9,0,13.4,5.8,14.6,11.4c1.4,9.1-4.6,15.9-11.3,17.2c-56.1,11.2-89.7,25.1-108,34.8                                   c-16.4,8.7-35.9,21.9-35.9,36c0,25.6,57.6,46.5,82.4,54.2c42.4,13.3,116.1,29.3,226.1,29.3c111,0,184.9-15.4,227.3-28.3                                   c25.2-7.7,83.7-28.4,83.7-55.2c0-15-21.8-28.9-34.9-35.9c-26-14-63.7-26-109-34.9c-6.5-1.3-12.6-10.5-11.3-17                                   c1.2-5.8,8.7-11.5,15.2-11.5c0.6,0,1.2,0.1,1.8,0.2l0.2,0c62.9,11.7,168.5,40,168.5,99.2c0,42.3-56.7,68.3-104.4,82.6                                   C673.5,753.5,588,764,500,764z"></path>                        </g>                      </g>                    </g>                    </svg>