<?xml version="1.0" encoding="iso-8859-1"?>
<!-- Generator: Adobe Illustrator 27.2.0, SVG Export Plug-In . SVG Version: 6.00 Build 0)  -->
<svg version="1.1" id="Layer_1" xmlns="http://www.w3.org/2000/svg" xmlns:xlink="http://www.w3.org/1999/xlink" x="0px" y="0px"
	 viewBox="0 0 241 57" style="enable-background:new 0 0 241 57;" xml:space="preserve">
<g>
	<path style="fill:#9DA57A;" d="M126.19,28.218c-2.133,0-3.863,1.729-3.863,3.863v9.407c0,2.133,1.73,3.862,3.863,3.862
		c2.134,0,3.862-1.729,3.862-3.862v-9.407C130.053,29.947,128.324,28.218,126.19,28.218z"/>
	<path d="M155.711,15.556c0-2.133-1.729-3.862-3.863-3.862c-2.134,0-3.862,1.729-3.862,3.862v16.525l-18.767-19.055
		c-1.373-1.633-3.811-1.842-5.443-0.468c-1.632,1.373-1.841,3.81-0.468,5.442l25.582,25.974c0.038,0.045,0.079,0.083,0.117,0.124
		c0.046,0.05,0.09,0.099,0.138,0.145c0.053,0.053,0.109,0.101,0.165,0.15c0.043,0.037,0.087,0.076,0.131,0.111
		c0.06,0.048,0.12,0.092,0.182,0.136c0.047,0.033,0.094,0.065,0.142,0.095c0.062,0.04,0.124,0.079,0.187,0.115
		c0.054,0.031,0.111,0.059,0.167,0.087c0.059,0.029,0.118,0.06,0.179,0.086c0.067,0.03,0.137,0.056,0.206,0.081
		c0.053,0.02,0.104,0.042,0.158,0.058c0.084,0.027,0.171,0.049,0.256,0.07c0.042,0.011,0.084,0.024,0.126,0.033
		c0.101,0.021,0.205,0.036,0.309,0.049c0.03,0.004,0.06,0.011,0.088,0.014c0.133,0.014,0.268,0.021,0.405,0.021
		c0.205,0,0.404-0.02,0.599-0.051c0.032-0.005,0.062-0.009,0.094-0.014c0.195-0.036,0.384-0.087,0.568-0.149
		c0.028-0.01,0.055-0.02,0.083-0.031c0.192-0.071,0.378-0.155,0.554-0.256c0.015-0.008,0.029-0.018,0.045-0.026
		c0.191-0.111,0.372-0.237,0.541-0.378c0,0,0.001-0.001,0.002-0.001c0.001-0.001,0.002-0.003,0.003-0.004
		c0.194-0.164,0.371-0.347,0.53-0.546c0.01-0.012,0.018-0.024,0.028-0.036c0.145-0.188,0.275-0.388,0.385-0.601
		c0.006-0.012,0.011-0.025,0.017-0.037c0.106-0.212,0.195-0.433,0.261-0.664c0.002-0.007,0.004-0.014,0.006-0.022
		c0.064-0.229,0.109-0.466,0.131-0.71c0-0.005,0-0.009,0-0.013c0.009-0.106,0.017-0.214,0.017-0.323V15.556z"/>
	<path style="fill:#9DA57A;" d="M100.712,24.659c-2.133,0-3.863,1.73-3.863,3.863c0,2.133,1.73,3.862,3.863,3.862h4.146
		c2.133,0,3.862-1.729,3.862-3.862c0-2.133-1.729-3.863-3.862-3.863H100.712z"/>
	<path d="M106.844,37.543H94.327V19.434h12.516c2.134,0,3.863-1.729,3.863-3.862c0-2.133-1.729-3.863-3.863-3.863H90.767
		c-0.099-0.007-0.2-0.015-0.302-0.015c-2.132,0-3.862,1.729-3.862,3.862v25.931c0,2.133,1.729,3.862,3.862,3.862
		c0.273,0,0.538-0.029,0.795-0.081h15.584c2.134,0,3.863-1.73,3.863-3.863C110.707,39.271,108.977,37.543,106.844,37.543z"/>
	<path d="M21.111,22.899c-2.134,0-3.863,1.729-3.863,3.862v14.727c0,2.133,1.729,3.862,3.863,3.862c2.132,0,3.862-1.729,3.862-3.862
		V26.761C24.973,24.628,23.244,22.899,21.111,22.899z"/>
	<path style="fill:#575D41;" d="M31.402,11.776H10.821c-2.133,0-3.862,1.729-3.862,3.862c0,2.133,1.729,3.863,3.862,3.863h20.581
		c2.134,0,3.862-1.729,3.862-3.863C35.264,13.506,33.535,11.776,31.402,11.776z"/>
	<path style="fill:#9DA57A;" d="M170.883,33.997c2.133,0,3.863-1.729,3.863-3.863v-2.943c0-2.132-1.731-3.862-3.863-3.862
		c-2.133,0-3.863,1.729-3.863,3.862v2.943C167.02,32.268,168.749,33.997,170.883,33.997z"/>
	<path d="M191.311,17.081c-2.877-3.102-6.778-4.997-10.982-5.333c-0.604-0.049-9.242-0.055-9.329-0.055
		c-2.134,0-3.863,1.729-3.863,3.863c0,2.132,1.729,3.862,3.863,3.862c0.906,0,7.865,0.015,8.787,0.036
		c4.653,0.412,8.287,4.38,8.287,9.067c0,4.724-3.667,8.696-8.36,9.073c-0.91,0.018-8.079,0.03-8.714,0.03
		c-2.134,0-3.863,1.729-3.863,3.862c0,2.134,1.729,3.863,3.863,3.863c0.086,0,8.652-0.005,9.203-0.045
		c8.745-0.636,15.595-8.007,15.595-16.783C195.798,24.264,194.205,20.201,191.311,17.081z"/>
	<path style="fill:#9DA57A;" d="M230.079,37.625c0,0-8.526-0.017-8.527-0.017c-2.131,0-3.86,1.727-3.862,3.86
		c-0.002,2.132,1.726,3.863,3.859,3.865l8.524,0.017c0.001,0,0.002,0,0.003,0c2.132,0,3.861-1.727,3.862-3.859
		C233.94,39.357,232.212,37.627,230.079,37.625z"/>
	<path d="M232.912,12.909c-0.228-0.228-0.481-0.409-0.745-0.568c-0.601-0.389-1.317-0.618-2.088-0.619l-21.775-0.017
		c-0.001,0-0.002,0-0.004,0c-2.132,0-3.86,1.727-3.861,3.86c-0.002,2.133,1.726,3.863,3.859,3.865l13.607,0.011l-16.371,19.296
		c0,0.001-0.001,0.001-0.002,0.002c-1.507,1.507-1.508,3.952-0.002,5.46c1.507,1.51,3.952,1.512,5.463,0.005
		c0,0,21.916-25.834,21.917-25.835C234.417,16.862,234.418,14.419,232.912,12.909z"/>
	<path style="fill:#9DA57A;" d="M69.817,38.15l-3.282-1.879c-1.844-1.075-4.208-0.452-5.283,1.391
		c-1.075,1.843-0.452,4.207,1.391,5.282l3.281,1.879c0.817,0.476,1.736,0.619,2.6,0.47c1.086-0.187,2.084-0.835,2.683-1.861
		C72.282,41.589,71.659,39.225,69.817,38.15z"/>
	<path d="M64.26,33.853c5.774-0.42,10.297-5.287,10.297-11.081c0-5.751-4.487-10.615-10.215-11.075
		c-0.193-0.015-4.589-0.027-14.609-0.035c-0.001,0-0.002,0-0.003,0c-2.132,0-3.861,1.728-3.862,3.859
		c-0.002,2.134,1.727,3.864,3.859,3.866c3.431,0.002,13.191,0.01,14.093,0.02c1.697,0.184,3.012,1.644,3.012,3.365
		c0,1.736-1.332,3.2-3.045,3.369c-0.864,0.008-10.624,0.014-14.06,0.017c-1.76,0.001-3.243,1.182-3.707,2.793
		c-0.115,0.367-0.178,0.758-0.178,1.162v11.373c0,2.132,1.729,3.862,3.862,3.862c2.134,0,3.863-1.729,3.863-3.862v-7.608
		C60.83,33.873,64.108,33.864,64.26,33.853z"/>
</g>
</svg>
