<svg xmlns="http://www.w3.org/2000/svg" xmlns:xlink="http://www.w3.org/1999/xlink" x="0px" y="0px" viewBox="134 133 730 532.3" style="enable-background:new 134 133 730 532.3;" xml:space="preserve">                    <g>                      <path d="M219.8,665c-46.7,0-84.7-38.1-84.8-84.8V219.8c0-46.7,38.1-84.7,84.8-84.8h560.4c46.7,0,84.7,38.1,84.8,84.8v360.4                               c0,46.7-38.1,84.7-84.8,84.8h0H219.8z M219.8,165c-30.2,0-54.8,24.6-54.8,54.8v360.5c0,30.2,24.6,54.8,54.8,54.8h560.5                               c30.2,0,54.8-24.6,54.8-54.8V219.8c0-30.2-24.6-54.8-54.8-54.8H219.8z"></path>                    </g>                    <g>                      <path d="M500,465c-3.4,0-6.7-1.2-9.4-3.3l-250-200c-3.1-2.5-5.1-6.1-5.5-10.1c-0.4-4,0.7-7.9,3.2-11c2.9-3.6,7.1-5.6,11.7-5.6                               c3.4,0,6.7,1.1,9.4,3.3L500,430.8l240.6-192.5c2.7-2.2,5.9-3.3,9.4-3.3c4.6,0,8.9,2.1,11.7,5.6c5.2,6.5,4.1,15.9-2.3,21.1l-250,200                               C506.7,463.8,503.4,465,500,465z"></path>                    </g>                    </svg>