<svg xmlns="http://www.w3.org/2000/svg" xmlns:xlink="http://www.w3.org/1999/xlink" x="0px" y="0px" viewBox="181.2 82.9 632.8 635.4" style="enable-background:new 181.2 82.9 632.8 635.4;" xml:space="preserve">                    <g>                      <path d="M671.5,714.6c-69.4,0-151.9-47.4-245.4-140.8L325.4,473c-34.5-34.5-139.6-139.6-139.6-245.2c0-28,7.6-54.2,22.6-77.9                               c26.1-41.5,56.5-63.8,87.9-64.5c1.2-0.1,2.4-0.1,3.6-0.1c49.2,0,93.1,47.7,133.1,99.3c7.9,11,12,24,12,37.6                               c0,33.8-21,71.2-53.6,95.2l-1.8,1.3l0.2,2.2c1.1,14.3,34.6,45.7,36.4,47.4l105.5,105.5c32.2,32.2,42.4,36.4,47.6,36.4h2l1.2-1.6                               c20.7-28.4,51.7-48.1,83-52.8c4.4-0.7,8.7-1,12.9-1c14.6,0,27,4.1,36.8,12.2l0.1,0.1c49.1,37.2,99.2,82,99.2,132.8                               c0,33.1-22,64-65.4,91.8C725.5,706.9,699.3,714.6,671.5,714.6z M298.9,108.6c-0.7,0-1.4,0-2.1,0c-24.1,0.9-47.2,19-68.8,53.9                               c-12.6,20.2-19,41.9-19,64.5c0,95.3,100.2,195.5,133.2,228.4l100.8,100.8c88.5,88.5,165.1,133.4,227.5,133.4                               c23.7,0,45.8-6.5,65.5-19.2c36.2-23.6,53.8-46.9,53.8-71.4c0-40-45.7-80.3-90.4-114.4c-6.2-4.5-14.4-6.8-24.3-6.8                               c-2.3,0-4.8,0.1-7.4,0.4l-0.1,0c-24.1,3.3-50,19.9-67.5,43.2l-0.1,0.1c-4.6,6.5-11.3,10.4-19.5,11.1c-0.6,0-1.3,0.1-2,0.1                               c-20.6,0-43.9-21.6-66-43.7l-104-103.2c-22.7-21.9-43.6-45-43.6-65.2c0-8.9,3.9-16.5,11.1-21.5l0.1-0.1c26.3-19.7,44-50.6,44-76.8                               c0-9-2.3-16.3-7.1-23.1l-0.1-0.1C376.9,152.1,338.1,108.6,298.9,108.6z"></path>                    </g>                    <g>                      <path d="M640.9,358.3c-6.6,0-12-5.4-12-12c0-41-33.4-74.4-74.4-74.4c-7,0-12-5-12-12c0-6.6,5.4-12,12-12                               c54.3,0,98.4,44.1,98.4,98.4C652.9,352.9,647.6,358.3,640.9,358.3z"></path>                    </g>                    <g>                      <path d="M696.1,349.5c-6.6,0-12-5.4-12-12c0-67.1-54.5-121.6-121.6-121.6c-7,0-12-5-12-12c0-6.6,5.4-12,12-12                               c80.3,0,145.6,65.3,145.6,145.6C708.1,344.1,702.8,349.5,696.1,349.5z"></path>                    </g>                    <g>                      <path d="M751.3,341.5c-6.6,0-12-5.4-12-12c0-93.1-75.7-168.8-168.8-168.8c-6.6,0-12-5.4-12-12s5.4-12,12-12                               c51.6,0,100,20,136.4,56.4c36.4,36.4,56.4,84.8,56.4,136.4C763.3,336.1,758,341.5,751.3,341.5z"></path>                    </g>                    </svg>