<svg xmlns="http://www.w3.org/2000/svg" data-name="Layer 1" viewBox="0 0 98.01 98.01"><path d="M42.2,1.63A49,49,0,1,1,10.46,21.05,3.9,3.9,0,0,1,17,25.34l-.23.31A41.19,41.19,0,1,0,43.44,9.32a41.65,41.65,0,0,0-10.91,3.34,3.9,3.9,0,0,1-3.29-7.07h0A49,49,0,0,1,42.2,1.63Z" transform="translate(-1 -0.99)"></path><path d="M38.06,68.64A3.08,3.08,0,0,1,35,65.58V33.05a3.06,3.06,0,0,1,4.59-2.64L67.74,46.67a3.06,3.06,0,0,1,0,5.29L39.59,68.22A3.06,3.06,0,0,1,38.06,68.64Zm3.06-30.3V60.29l19-11Z" transform="translate(-1 -0.99)"></path></svg>