<svg xmlns="http://www.w3.org/2000/svg" xmlns:xlink="http://www.w3.org/1999/xlink" x="0px" y="0px" viewBox="0 0 100 100" style="enable-background:new 0 0 100 100;" xml:space="preserve"><path d="M56.7,90.6l39,0.3c0.9,0,1.5-0.7,1.6-1.5l0.3-39c0-0.9-0.7-1.5-1.5-1.6l-27-0.2l14.1-36.9c0.2-0.5,0.1-1-0.1-1.4 c-0.3-0.4-0.8-0.7-1.3-0.7L72,9.5c-0.7,0-1.2,0.4-1.4,1l-15,39v0.1c0,0.1,0,0.2,0,0.3s-0.1,0.2-0.1,0.3l-0.3,39 C55.2,90,55.9,90.6,56.7,90.6L56.7,90.6z"></path><path d="M3.9,90.3L43,90.5c0.9,0,1.5-0.7,1.6-1.5l0.3-39c0-0.9-0.7-1.5-1.5-1.6l-27-0.2l14.1-36.9c0.2-0.5,0.1-1-0.1-1.4 c-0.3-0.4-0.8-0.7-1.3-0.7l-9.7-0.1c-0.7,0-1.2,0.4-1.4,1l-15.1,39v0.1c0,0.1,0,0.2,0,0.3c-0.1,0.1-0.1,0.1-0.1,0.2l-0.3,39 C2.4,89.6,3.1,90.3,3.9,90.3L3.9,90.3z"></path></svg>